<?xml version="1.0" standalone="no"?>
<!DOCTYPE svg PUBLIC "-//W3C//DTD SVG 1.1//EN" "http://www.w3.org/Graphics/SVG/1.1/DTD/svg11.dtd" >
<svg xmlns="http://www.w3.org/2000/svg">
<metadata>
This is a custom SVG webfont generated by Font Squirrel.
Copyright   : Copyright  1991 1992 2002 Adobe Systems Incorporated  All Rights Reserved  1981 2002 Heidelberger Druckmaschinen AG All rights reserved
Designer    : Peter Matthias Noordzij
Foundry URL : httpwwwadobecomtype
</metadata>
<defs>
<font id="CaeciliaLTStd75Bold" horiz-adv-x="1214" >
<font-face units-per-em="2048" ascent="1575" descent="-473" />
<missing-glyph horiz-adv-x="606" />
<glyph unicode=" "  horiz-adv-x="606" />
<glyph unicode="&#x09;" horiz-adv-x="606" />
<glyph unicode="&#xa0;" horiz-adv-x="606" />
<glyph unicode="!" horiz-adv-x="606" d="M145 127q0 66 46.5 112t112 46t111.5 -46t46 -112t-46 -112t-111.5 -46t-112 46t-46.5 112zM170 1575h266l-24 -1102h-217z" />
<glyph unicode="&#x22;" horiz-adv-x="985" d="M184 1485q0 47 34 80.5t81 33.5t81 -33.5t34 -80.5q0 -16 -21 -252l-20 -256q-6 -74 -74 -74t-74 74l-20 256q-21 236 -21 252zM571 1485q0 47 34 80.5t81 33.5t81 -33.5t34 -80.5q0 -16 -21 -252l-20 -256q-6 -74 -74 -74t-74 74l-20 256q-21 236 -21 252z" />
<glyph unicode="#" horiz-adv-x="1212" d="M102 430v143h207l39 287h-186v144h207l61 430h143l-61 -430h268l62 430h143l-61 -430h186v-144h-207l-39 -287h187v-143h-207l-62 -430h-143l61 430h-268l-61 -430h-144l62 430h-187zM453 573h268l39 287h-268z" />
<glyph unicode="$" horiz-adv-x="1212" d="M59 1030q0 201 138.5 313.5t330.5 120.5l4 265h156l-4 -265q176 -4 379 -67v-318h-193v172q-100 35 -186 33l-4 -469l123 -35q180 -49 265 -131t85 -254q0 -186 -129 -296.5t-350 -129.5l-4 -250h-156l4 250q-303 0 -455 62v352h205v-203q115 -31 252 -30l4 483l-147 47 q-318 86 -318 350zM289 1065q0 -143 168 -188l67 -19l4 426q-111 -14 -173 -73.5t-66 -145.5zM674 150q250 29 250 229q0 86 -47.5 129t-137.5 67l-57 17z" />
<glyph unicode="%" horiz-adv-x="1705" d="M90 1128q0 143 94.5 239.5t249.5 96.5q145 0 234.5 -85t89.5 -246q0 -152 -91.5 -244t-242.5 -92q-150 0 -242 89.5t-92 241.5zM258 1130.5q2 -88.5 44 -139.5t122 -51q84 0 125 51t41 139q0 190 -166 191q-80 0 -124 -51t-42 -139.5zM303 -37l944 1587l133 -80 l-944 -1587zM948 301q0 143 94.5 239.5t249.5 96.5q145 0 234.5 -85t89.5 -247q0 -152 -91 -244t-243 -92q-150 0 -242 90t-92 242zM1116 303q2 -88 44 -139t122 -51q84 0 125 51t41 139q0 190 -166 191q-80 0 -124 -51.5t-42 -139.5z" />
<glyph unicode="&#x26;" horiz-adv-x="1554" d="M121 383q0 215 223 371l74 51l-60 65q-123 135 -122 267q0 125 101 223t298 98q166 0 252 -86t86 -205q0 -104 -53.5 -175.5t-149.5 -141.5l-76 -57l371 -379q39 51 65.5 145t24.5 162h-139v156h450v-156h-131q0 -113 -43 -237t-104 -193q106 -123 211 -123q39 0 67 6 v-168q-41 -6 -94 -6q-162 0 -254 94l-51 53q-84 -84 -186.5 -128t-270.5 -44q-223 0 -356 124t-133 284zM338 418q0 -113 86 -187.5t225 -74.5q104 0 164.5 27.5t126.5 86.5l-403 414l-50 -33q-149 -98 -149 -233zM428 1149q0 -90 113 -203l34 -37l43 29q49 31 80 56.5 t56.5 67.5t25.5 87q0 68 -43 111t-123 43q-82 0 -134 -46.5t-52 -107.5z" />
<glyph unicode="'" horiz-adv-x="606" d="M188 1485q0 47 34 80.5t81 33.5t81 -33.5t34 -80.5q0 -16 -21 -252l-20 -256q-6 -74 -73.5 -74t-74.5 74l-20 256q-21 236 -21 252z" />
<glyph unicode="(" horiz-adv-x="606" d="M98 530q0 291 98.5 563.5t254.5 483.5l32 43l156 -92l-29 -43q-123 -182 -196.5 -438t-73.5 -517q0 -545 260 -952l29 -45l-160 -92l-29 37q-150 199 -246 487.5t-96 564.5z" />
<glyph unicode=")" horiz-adv-x="606" d="M-33 -467l29 43q123 182 196.5 438t73.5 516q0 545 -260 953l-29 45l160 92l29 -37q150 -199 246 -487.5t96 -565.5q0 -291 -98.5 -563t-253.5 -483l-33 -43z" />
<glyph unicode="*" horiz-adv-x="720" d="M45 1165l236 95l-236 86l76 137l198 -152l-32 244h159l-38 -244l192 152l76 -137l-227 -86l227 -95l-76 -127l-192 150l38 -250h-159l32 250l-198 -150z" />
<glyph unicode="+" horiz-adv-x="1228" d="M96 434v168h434v434h168v-434h435v-168h-435v-434h-168v434h-434z" />
<glyph unicode="," horiz-adv-x="606" d="M92 -309l35 35q104 104 104 186q0 59 -53 130t-53 114q0 45 40 87t107 42q86 0 137.5 -72t51.5 -164q0 -96 -47 -203.5t-140 -189.5l-77 -68z" />
<glyph unicode="-" horiz-adv-x="833" d="M135 479v205h563v-205h-563z" />
<glyph unicode="." horiz-adv-x="606" d="M145 127q0 66 46.5 112t112 46t111.5 -46t46 -112t-46 -112t-111.5 -46t-112 46t-46.5 112z" />
<glyph unicode="/" horiz-adv-x="757" d="M-4 -109l614 1708l152 -57l-615 -1708z" />
<glyph unicode="0" horiz-adv-x="1212" d="M86 688q0 150 28.5 282t88 246.5t166 181t249.5 66.5q145 0 251 -67.5t159 -180t75.5 -227.5t22.5 -241q0 -164 -28.5 -299.5t-89 -246t-168 -172t-252.5 -61.5q-502 0 -502 719zM328 692q0 -543 272 -542q150 0 217.5 157.5t67.5 411.5q0 285 -65.5 425t-205.5 140 q-145 0 -215.5 -162t-70.5 -430z" />
<glyph unicode="1" horiz-adv-x="1212" d="M123 1135l487 299h181l-9 -1266h299v-168h-807v168h279l8 1051q-47 -45 -84 -68l-260 -172z" />
<glyph unicode="2" horiz-adv-x="1212" d="M96 0v168l56 43q80 63 122.5 99t139 119t156 149.5t126 151.5t100 166t33.5 155q0 102 -57 161.5t-180 59.5q-94 0 -156.5 -51.5t-83 -105.5t-20.5 -101h-230q0 49 13.5 104.5t49.5 118.5t90 112.5t144 82t201 32.5q201 0 330 -107.5t129 -301.5q0 -96 -46 -203 t-106.5 -190.5t-159 -182t-164 -156t-161.5 -135.5v-4q78 8 156 9h532v-193h-1014z" />
<glyph unicode="3" horiz-adv-x="1212" d="M111 1057q0 41 13 90t48 106.5t88 103.5t143.5 76.5t200.5 30.5q215 0 327.5 -99t112.5 -257q0 -143 -85 -231.5t-216 -116.5v-4q158 -10 258.5 -102.5t100.5 -245.5q0 -197 -143.5 -318t-434.5 -121q-223 0 -405 80v219q199 -106 393 -106q154 0 251 58.5t97 189.5 q0 238 -366 237h-82v168h26q88 0 166 23.5t138.5 89t60.5 164.5q0 88 -58.5 140t-156.5 52q-72 0 -123 -24.5t-77 -61.5t-37 -72.5t-11 -68.5h-229z" />
<glyph unicode="4" horiz-adv-x="1212" d="M51 401v181l598 852h279l-8 -852h270v-181h-270l-5 -233h170v-168h-536v168h151l5 233h-654zM274 578q70 4 105 4h326l4 628l-4 4z" />
<glyph unicode="5" horiz-adv-x="1212" d="M141 31v192l31 -10q33 -12 55.5 -18.5t62.5 -15.5t88 -13t99 -4q172 0 262 71.5t90 206.5q0 76 -35.5 130.5t-90 85t-140.5 48t-167 22.5t-189 5h-37l8 703h830v-181h-600l-9 -342h35q82 0 160 -10t167 -41t155.5 -79t110.5 -133t44 -195q0 -213 -154.5 -348.5 t-404.5 -135.5q-211 1 -371 62z" />
<glyph unicode="6" horiz-adv-x="1212" d="M102 635q0 133 22.5 249.5t77 225.5t135.5 185.5t207 122.5t285 46q115 0 218 -28l30 -11l-16 -180q-117 39 -232 39q-233 0 -347.5 -133t-149.5 -399l4 -4q135 156 333.5 155.5t319.5 -117t121 -315.5q0 -233 -134 -367.5t-358 -134.5q-115 0 -204.5 40t-147 104.5 t-95.5 152.5t-53.5 179.5t-15.5 189.5zM332 584q0 -193 75.5 -307.5t217.5 -114.5q121 0 188.5 85t67.5 208q0 111 -66.5 189.5t-200.5 78.5q-31 0 -57.5 -3t-50 -12.5t-39.5 -15.5t-35.5 -20.5t-28 -20.5t-27 -21.5t-22.5 -19.5z" />
<glyph unicode="7" horiz-adv-x="1212" d="M129 1241v193h954v-148l-448 -897q-117 -225 -217 -389h-254q92 125 215 362l291 566q111 215 178 313h-719z" />
<glyph unicode="8" horiz-adv-x="1212" d="M84 342q0 238 256 350l88 39v4q-291 92 -291 352q0 164 125 270.5t359 106.5q221 0 345 -91t124 -259q0 -246 -297 -364v-5q59 -18 113.5 -45.5t106.5 -72.5t83.5 -110.5t31.5 -145.5q0 -401 -540 -402q-98 0 -184.5 18.5t-160 59.5t-116.5 117t-43 178zM326 362 q0 -94 71.5 -153t215 -59t215 61t71.5 162q0 53 -26.5 94t-57.5 61.5t-84 46.5l-133 68l-90 -47q-182 -95 -182 -234zM367 1090q0 -78 44 -125t124 -86l83 -39l76 37q166 82 166 221q0 94 -67.5 140t-178.5 46q-117 0 -182 -54t-65 -140z" />
<glyph unicode="9" horiz-adv-x="1212" d="M102 963q0 233 134.5 367t357.5 134q115 0 205 -40t147.5 -104.5t95 -152.5t53 -179t15.5 -189q0 -133 -22.5 -250t-77 -225.5t-135 -185.5t-206.5 -123t-286 -46q-115 0 -217 29l-31 10l17 180q117 -39 231 -38q233 0 348 133t150 399l-4 4q-135 -156 -334 -156 t-320 117t-121 316zM332 979q0 -111 66.5 -189.5t199.5 -78.5q31 0 57.5 3t50 12t40 15.5t36 20.5t27.5 20t26.5 21.5t22.5 19.5l23 27q0 193 -76 307.5t-217 114.5q-121 0 -188.5 -85t-67.5 -208z" />
<glyph unicode=":" horiz-adv-x="606" d="M145 127q0 66 46.5 112t112 46t111.5 -46t46 -112t-46 -112t-111.5 -46t-112 46t-46.5 112zM145 931.5q0 65.5 46.5 112t112 46.5t111.5 -46.5t46 -112t-46 -111.5t-111.5 -46t-112 46t-46.5 111.5z" />
<glyph unicode=";" horiz-adv-x="606" d="M92 -309l35 35q104 104 104 186q0 59 -53 130t-53 114q0 45 40 87t107 42q86 0 137.5 -72t51.5 -164q0 -96 -47 -203.5t-140 -189.5l-77 -68zM141 931.5q0 65.5 46 112t112 46.5t112 -46.5t46 -112t-46 -111.5t-112 -46t-112 46t-46 111.5z" />
<glyph unicode="&#x3c;" horiz-adv-x="1228" d="M96 440v156l1037 463v-168l-832 -373l832 -373v-168z" />
<glyph unicode="=" horiz-adv-x="1228" d="M96 238v168h1037v-168h-1037zM96 631v168h1037v-168h-1037z" />
<glyph unicode="&#x3e;" horiz-adv-x="1228" d="M96 -23v168l832 373l-832 373v168l1037 -463v-156z" />
<glyph unicode="?" horiz-adv-x="985" d="M123 1556q129 43 287 43q229 0 353 -103t124 -271q0 -219 -217 -361l-189 -121q-51 -33 -69.5 -58.5t-18.5 -66.5q0 -49 41 -94l12 -12l-202 -76l-17 21q-63 88 -63 174q0 51 20.5 94t64.5 81t77.5 61.5t93.5 56.5q117 66 165 130t48 154q0 96 -79 153.5t-194 57.5 q-133 0 -225 -43zM166 127q0 66 46 112t111.5 46t111.5 -46t46 -112t-46 -112t-111.5 -46t-111.5 46t-46 112z" />
<glyph unicode="@" horiz-adv-x="1638" d="M78 719q0 315 216 527t558 212q305 0 507 -171t202 -439q0 -141 -51.5 -256t-131.5 -180.5t-164 -100.5t-159 -35q-139 0 -144 119h-4q-102 -119 -245 -119q-117 0 -196 89.5t-79 234.5q0 213 134 376t308 163q152 0 232 -156l37 117h145l-139 -500q-33 -117 -33 -137 q0 -43 68 -43q84 0 162.5 122t78.5 281q0 205 -155.5 336t-372.5 131q-256 0 -425 -171t-169 -408q0 -254 169 -411t409 -157q322 0 493 168h168q-82 -152 -254 -244t-407 -92q-326 0 -542 201t-216 543zM555 618q0 -90 41 -138t113 -48q121 0 205.5 122t84.5 243 q0 186 -161 186q-119 0 -201 -116t-82 -249z" />
<glyph unicode="A" horiz-adv-x="1554" d="M25 0v168h122l521 1266h254l481 -1266h127v-168h-524v168h131l-123 356h-504l-133 -356h147v-168h-499zM575 705h379l-141 405q-25 70 -37 131h-4q-14 -68 -39 -131z" />
<glyph unicode="B" horiz-adv-x="1290" d="M80 0v168h143l8 1098h-151v168h571q221 0 332 -82q55 -39 92 -112t37 -159q0 -129 -77 -223t-208 -104v-4h7q148 0 255 -95q110 -96 109 -254q0 -186 -132 -293.5t-386 -107.5h-600zM455 168h188q133 0 217 59.5t84 182.5q0 113 -84 173t-205 60h-196zM459 823h155 q119 0 187.5 60.5t68.5 169.5q0 131 -96 186q-49 27 -162 27h-149z" />
<glyph unicode="C" horiz-adv-x="1402" d="M84 702q0 338 211 547t565 209q254 0 447 -78v-366h-205v229q-129 35 -244 35q-254 0 -387 -147.5t-133 -419.5q0 -246 135 -400.5t354 -154.5q150 0 256 20l9 258h204l-8 -391q-203 -68 -446 -68q-371 0 -564.5 202.5t-193.5 524.5z" />
<glyph unicode="D" horiz-adv-x="1593" d="M80 0v168h145l8 1098h-153v168h680q342 0 533.5 -184.5t191.5 -499.5q0 -328 -195.5 -539t-531.5 -211h-678zM455 168h229q262 0 404.5 150.5t142.5 420.5q0 246 -138.5 386.5t-398.5 140.5h-231z" />
<glyph unicode="E" d="M80 1266v168h1007l9 -377h-191l-12 209h-416l-4 -443h410v-180h-410l-4 -475h436l17 233h192l-16 -401h-1004v168h144l8 1098h-166z" />
<glyph unicode="F" horiz-adv-x="1175" d="M80 1266v168h1007l9 -377h-191l-12 209h-416l-4 -443h447v-180h-447l-4 -475h176v-168h-551v168h144l8 1098h-166z" />
<glyph unicode="G" horiz-adv-x="1478" d="M84 702q0 338 211 547t565 209q254 0 447 -78v-366h-205v229q-129 35 -244 35q-254 0 -387 -147.5t-133 -419.5q0 -246 135 -400.5t354 -154.5q131 0 244 28l4 316h-164v168h529v-168h-148l-4 -457q-186 -68 -438 -68q-375 0 -570.5 202.5t-195.5 524.5z" />
<glyph unicode="H" horiz-adv-x="1593" d="M84 0v168h143l9 1098h-152v168h528v-168h-145l-4 -457h665l5 457h-152v168h528v-168h-145l-8 -1098h153v-168h-528v168h143l4 461h-665l-4 -461h153v-168h-528z" />
<glyph unicode="I" horiz-adv-x="720" d="M96 0v168h146l8 1098h-154v168h529v-168h-146l-8 -1098h154v-168h-529z" />
<glyph unicode="J" horiz-adv-x="681" d="M-94 -223l71 41q88 51 145.5 116.5t82 147.5t33 146.5t8.5 160.5l8 877h-158v168h529v-168h-142l-8 -863q-2 -315 -93 -473.5t-335 -283.5l-67 -35z" />
<glyph unicode="K" horiz-adv-x="1441" d="M80 0v168h141l8 1098h-149v168h526v-168h-145l-4 -502l567 502h-158v168h537v-168h-115l-590 -516l607 -582h118v-168h-573v168h149l-542 520l-4 -520h153v-168h-526z" />
<glyph unicode="L" d="M80 0v168h145l8 1098h-153v168h528v-168h-145l-8 -1098h426l20 242h193l-21 -410h-993z" />
<glyph unicode="M" horiz-adv-x="1933" d="M61 1266v168h471l414 -1067q6 -16 33 -117h4q27 100 33 117l409 1067h447v-168h-164l8 -1098h156v-168h-522v168h141l8 969l-6 4l-55 -191l-367 -950h-229l-359 913q-8 20 -63 220h-4l-8 -965h161v-168h-499v168h145l8 1098h-162z" />
<glyph unicode="N" horiz-adv-x="1630" d="M55 1266v168h377l664 -867q63 -84 143 -215h4l-8 914h-160v168h500v-168h-139l-9 -1266h-186l-717 930q-70 92 -100 151l-4 -4l8 -909h158v-168h-498v168h139l9 1098h-181z" />
<glyph unicode="O" horiz-adv-x="1554" d="M84 692q0 340 197.5 553t525.5 213q309 0 486 -192.5t177 -524.5q0 -145 -43 -279t-126.5 -245t-222 -176.5t-312.5 -65.5q-313 0 -497.5 193.5t-184.5 523.5zM338 702q0 -225 111.5 -379.5t324.5 -154.5q133 0 227.5 58.5t137.5 152.5t60.5 178t17.5 172 q0 82 -11.5 154.5t-41 144.5t-76 123t-122 83t-173.5 32q-197 0 -326 -140.5t-129 -423.5z" />
<glyph unicode="P" d="M80 0v168h145l8 1098h-153v168h541q139 0 211.5 -14.5t130.5 -49.5q86 -51 135 -144t49 -208q0 -119 -55.5 -223.5t-145.5 -157.5q-117 -68 -278 -68h-211l-4 -401h176v-168h-549zM457 737h161q147 0 217 74t70 199q0 123 -80 194q-72 61 -237 62h-127z" />
<glyph unicode="Q" horiz-adv-x="1554" d="M84 692q0 340 197.5 553t525.5 213q309 0 486 -192.5t177 -524.5q0 -254 -122.5 -457.5t-356.5 -277.5v-4q90 -8 191 -59l190 -97q109 -55 225 -55q66 0 99 12v-180q-86 -12 -133 -12q-90 0 -168 20.5t-205 85.5l-287 146q-18 10 -72.5 39.5t-92.5 47t-66 25.5 q-272 33 -430 223.5t-158 493.5zM338 702q0 -225 111.5 -379.5t324.5 -154.5q133 0 227.5 58.5t137.5 152.5t60.5 178t17.5 172q0 82 -11.5 154.5t-41 144.5t-76 123t-122 83t-173.5 32q-197 0 -326 -140.5t-129 -423.5z" />
<glyph unicode="R" horiz-adv-x="1327" d="M80 0v168h141l8 1098h-149v168h637q211 0 322.5 -106.5t111.5 -272.5q0 -174 -96.5 -269.5t-245.5 -109.5v-4q55 -4 97 -44t85 -112l156 -262q51 -86 127 -86h53v-168h-133q-98 0 -149.5 26.5t-110.5 125.5l-197 333q-45 76 -75.5 100.5t-81.5 24.5h-123l-4 -442h165 v-168h-538zM457 791h178q125 0 199.5 63.5t74.5 176t-66.5 174t-191.5 61.5h-190z" />
<glyph unicode="S" horiz-adv-x="1251" d="M109 51v346h229v-190q98 -51 260 -51q139 0 221 61.5t82 173.5q0 82 -51 125t-172 78l-254 72q-311 90 -311 372q0 203 151.5 311.5t388.5 108.5q188 0 434 -69v-318h-217v172q-88 35 -215 35q-152 0 -226.5 -58.5t-74.5 -148.5q0 -86 55.5 -129t165.5 -72l222 -57 q346 -90 346 -385q0 -213 -147.5 -333t-403.5 -120q-94 0 -245.5 21.5t-237.5 54.5z" />
<glyph unicode="T" horiz-adv-x="1402" d="M43 1057l8 377h1301l8 -377h-205l-8 209h-328l-8 -1098h166v-168h-543v168h148l8 1098h-334l-8 -209h-205z" />
<glyph unicode="U" horiz-adv-x="1554" d="M61 1266v168h525v-168h-146l-2 -719q0 -70 3 -114t22.5 -98t54.5 -87q86 -80 256 -80q109 0 169.5 17.5t107.5 64.5t63 113.5t19 177.5l4 725h-168v168h524v-168h-137l-4 -770q0 -266 -160 -404q-139 -117 -420 -117q-289 0 -430 119q-76 63 -104.5 156.5t-28.5 243.5 q0 276 4 772h-152z" />
<glyph unicode="V" horiz-adv-x="1517" d="M10 1266v168h537v-168h-146l342 -949q4 -12 33 -124h4q29 113 33 124l336 949h-166v168h524v-168h-129l-491 -1266h-254l-498 1266h-125z" />
<glyph unicode="W" horiz-adv-x="2275" d="M16 1266v168h537v-168h-143l309 -924q10 -29 22.5 -80t18.5 -69h4q4 12 17.5 67t23.5 82l254 692l-78 232h-139v168h524v-168h-143l280 -906q6 -18 39 -167h4q6 20 21.5 78.5t25.5 88.5l312 906h-158v168h512v-168h-125l-477 -1266h-254l-246 760h-4l-287 -760h-254 l-469 1266h-127z" />
<glyph unicode="X" horiz-adv-x="1441" d="M33 0v168h119l440 551l-402 547h-135v168h561v-168h-153q16 -16 39 -45l246 -336l264 332q16 20 45 49h-156v168h475v-168h-108l-412 -527l424 -571h129v-168h-561v168h147q-25 25 -41 49l-254 356l-270 -356q-18 -25 -43 -49h145v-168h-499z" />
<glyph unicode="Y" horiz-adv-x="1478" d="M8 1266v168h524v-168h-139q25 -25 41 -49l330 -449l326 449q12 18 43 49h-162v168h499v-168h-127l-483 -674l-8 -424h152v-168h-525v168h144l8 424l-498 674h-125z" />
<glyph unicode="Z" horiz-adv-x="1327" d="M90 0v160l811 1057q20 27 45 49h-590l-16 -207h-205l17 375h1073v-172l-801 -1045q-18 -25 -43 -49h635l16 207h205l-16 -375h-1131z" />
<glyph unicode="[" horiz-adv-x="606" d="M164 -514l8 2089h410v-168h-193l-8 -1753h192v-168h-409z" />
<glyph unicode="\" horiz-adv-x="757" d="M-4 1542l151 57l615 -1708l-152 -57z" />
<glyph unicode="]" horiz-adv-x="606" d="M25 -346h192l8 1753h-192v168h409l-8 -2089h-409v168z" />
<glyph unicode="^" horiz-adv-x="1228" d="M176 686l373 748h131l373 -748h-168l-271 543l-270 -543h-168z" />
<glyph unicode="_" horiz-adv-x="1024" d="M0 -154h1024v-102h-1024v102z" />
<glyph unicode="`" horiz-adv-x="569" d="M-61 1516l122 114l414 -344l-129 -98z" />
<glyph unicode="a" d="M119 281q0 303 459 325l219 12v80q0 109 -51.5 166.5t-184.5 57.5q-102 0 -192 -37v-156h-205v264q207 96 422 97q225 0 320 -103.5t95 -304.5q0 -98 -4 -277.5t-4 -236.5h144v-168h-338q0 115 18 221h-4q-92 -246 -354 -246q-174 0 -257 92.5t-83 213.5zM348 299 q0 -61 45 -102t125 -41q127 0 201 80.5t74 189.5v43q-70 0 -116 -2t-103.5 -7t-93.5 -17.5t-68.5 -30t-48 -46t-15.5 -67.5z" />
<glyph unicode="b" horiz-adv-x="1251" d="M8 1407v168h402l-9 -506q-2 -74 -18 -225h4q37 96 128 171t237 75q205 0 318.5 -132.5t113.5 -351.5q0 -100 -18.5 -188t-62.5 -171t-110.5 -141.5t-172 -94.5t-238.5 -36q-201 0 -410 82l8 1350h-172zM397 213q94 -45 211 -45q170 0 252 120t82 302q0 143 -66.5 225 t-193.5 82q-129 0 -200.5 -86t-75.5 -219z" />
<glyph unicode="c" horiz-adv-x="1024" d="M74 526q0 252 150.5 408t422.5 156q182 0 303 -56v-301h-192v158q-59 18 -135 18q-154 0 -237 -101t-83 -259q0 -160 89 -270.5t284 -110.5q166 0 272 61l-12 -198q-129 -55 -291 -56q-154 0 -268.5 48.5t-178 129t-94 174t-30.5 199.5z" />
<glyph unicode="d" horiz-adv-x="1290" d="M74 481q0 270 152.5 439.5t418.5 169.5q102 0 211 -25l4 342h-194v168h415l-8 -1407h144v-168h-361q0 94 21 217h-5q-94 -242 -354 -242q-197 0 -320.5 136.5t-123.5 369.5zM315 516q0 -156 67 -252t191 -96q135 0 205 104.5t70 294.5v297q-74 45 -203 45 q-152 0 -241 -114.5t-89 -278.5z" />
<glyph unicode="e" horiz-adv-x="1138" d="M74 528q0 246 136 404t386 158q233 0 357 -154t124 -410v-30h-762q2 -154 103.5 -247t261.5 -93q182 0 342 82l-12 -189q-176 -74 -375 -74q-262 2 -411.5 151.5t-149.5 401.5zM315 651h521v21q0 88 -61.5 169t-190.5 81q-133 0 -197 -79t-72 -192z" />
<glyph unicode="f" horiz-adv-x="720" d="M61 897v168h162l4 145q6 199 128 294t321 95q78 0 207 -24l-9 -180q-57 25 -172 24q-125 0 -183 -64.5t-62 -168.5l-4 -121h249v-168h-249l-4 -729h163v-168h-522v168h129l4 729h-162z" />
<glyph unicode="g" horiz-adv-x="1175" d="M68 -256q0 102 71.5 170t175.5 82v4q-156 33 -155 158q0 76 60.5 118.5t141.5 55.5v4q-113 31 -191.5 112.5t-78.5 235.5q0 178 127 292t348 114q86 0 189 -25h393l-8 -168l-205 12q88 -98 88 -231q0 -166 -127 -272.5t-305 -106.5h-86q-43 0 -80 -24.5t-37 -55.5 q0 -18 8.5 -29.5t36 -19.5t53 -13t82.5 -14l279 -39q129 -18 204.5 -75.5t75.5 -180.5q0 -137 -85 -227t-205.5 -125t-270.5 -35q-219 0 -359 77t-140 206zM285 -209q0 -162 305 -162q133 0 227 43t94 135q0 53 -45 80t-145 41l-266 41q-170 -74 -170 -178zM309 690 q0 -223 271 -223q121 0 186 62.5t65 169t-69.5 165t-194.5 58.5q-119 0 -188.5 -64t-69.5 -168z" />
<glyph unicode="h" horiz-adv-x="1366" d="M74 1407v168h391l-6 -510q0 -68 -27 -236h4q35 113 130.5 187t244.5 74q184 0 277.5 -109t93.5 -303q0 -96 -4 -274.5t-4 -235.5h139v-168h-490v168h121q0 51 4 216t4 253q0 117 -55 188.5t-160 71.5q-121 0 -199.5 -88t-80.5 -236l-8 -405h143v-168h-494v168h121l8 1239 h-153z" />
<glyph unicode="i" horiz-adv-x="645" d="M61 897v168h392l-4 -897h143v-168h-512v168h139l4 729h-162zM180 1441.5q0 65.5 46 111.5t111.5 46t112 -46t46.5 -111.5t-46.5 -111.5t-112 -46t-111.5 46t-46 111.5z" />
<glyph unicode="j" horiz-adv-x="681" d="M-150 -356q215 51 291 184t78 461l4 608h-162v168h392l-4 -866q-4 -664 -570 -738zM180 1441.5q0 65.5 46 111.5t111.5 46t112 -46t46.5 -111.5t-46.5 -111.5t-112 -46t-111.5 46t-46 111.5z" />
<glyph unicode="k" horiz-adv-x="1251" d="M41 1407v168h416l-8 -973l376 291v4h-151v168h500v-168h-107l-381 -315l412 -414h121v-168h-512v168h124l-382 373v-373h129v-168h-488v168h129l8 1239h-186z" />
<glyph unicode="l" horiz-adv-x="645" d="M41 1407v168h416l-8 -1407h143v-168h-502v168h129l8 1239h-186z" />
<glyph unicode="m" horiz-adv-x="2048" d="M74 897v168h379q0 -106 -21 -236h4q33 119 132.5 190t232.5 71q150 0 230.5 -67t96.5 -175h5q37 117 133 179.5t231 62.5q180 0 273.5 -109t93.5 -303q0 -283 -9 -510h140v-168h-490v168h121q8 207 8 469q0 117 -55 188.5t-160 71.5q-117 0 -186.5 -87t-73.5 -237 l-4 -405h135v-168h-481v168h117l4 428v11q0 290 -213 290q-106 0 -184 -90t-80 -234l-4 -405h143v-168h-494v168h121l4 729h-149z" />
<glyph unicode="n" horiz-adv-x="1366" d="M74 897v168h379q0 -106 -21 -236h4q35 113 130.5 187t244.5 74q184 0 277.5 -109t93.5 -303q0 -96 -4 -274.5t-4 -235.5h139v-168h-490v168h121q0 51 4 216t4 253q0 117 -55 188.5t-160 71.5q-121 0 -199.5 -88t-80.5 -236l-8 -405h143v-168h-494v168h121l4 729h-149z " />
<glyph unicode="o" d="M68 510q0 260 155.5 420t401.5 160q141 0 246.5 -50.5t163 -134.5t85 -179t27.5 -200q0 -240 -143.5 -395.5t-405.5 -155.5q-266 0 -398 155t-132 380zM309 518q0 -147 75 -248.5t220 -101.5q150 0 225.5 107.5t75.5 275.5q0 172 -78.5 259t-205.5 87q-158 0 -235 -110.5 t-77 -268.5z" />
<glyph unicode="p" horiz-adv-x="1290" d="M53 897v168h367q0 -94 -21 -217h4q94 242 355 242q197 0 321.5 -136.5t124.5 -369.5q0 -270 -152.5 -439.5t-420.5 -169.5q-121 0 -211 35l-4 -356h170v-168h-510v168h119l8 1243h-150zM428 201q74 -45 205 -45q152 0 241 114.5t89 278.5q0 156 -67 252t-191 96 q-137 0 -207 -104.5t-70 -294.5v-297z" />
<glyph unicode="q" horiz-adv-x="1290" d="M74 459q0 100 18.5 188t62.5 171t110.5 141.5t172 94.5t238.5 36q199 0 411 -82l-8 -1354h152v-168h-512v168h131l4 342q0 45 9 127t11 98h-4q-37 -96 -128 -171t-236 -75q-205 0 -318.5 132.5t-113.5 351.5zM315 475q0 -143 67 -225t193 -82q129 0 201 86t76 219l8 379 q-94 45 -211 45q-170 0 -252 -120t-82 -302z" />
<glyph unicode="r" horiz-adv-x="872" d="M61 897v168h379q0 -188 -12 -295l4 -4q31 150 114 234.5t197 84.5q84 0 129 -18l-24 -203q-45 16 -105 17q-141 0 -214.5 -112t-75.5 -269l-4 -332h155v-168h-514v168h129l4 729h-162z" />
<glyph unicode="s" horiz-adv-x="1062" d="M90 754q0 174 128 255t325 81q156 0 370 -70l5 -260h-205l-4 127q-61 35 -174 35q-215 0 -216 -129q0 -55 36 -80t100 -39l260 -51q53 -10 92 -26.5t81 -47.5t63.5 -86t21.5 -133q0 -100 -40 -173t-111.5 -111t-150.5 -54.5t-175 -16.5q-213 0 -387 64l-5 289h205l4 -142 q143 -43 228 -43q90 0 152.5 37t62.5 113q0 61 -40 91t-114 44l-170 31q-72 12 -125 30.5t-106.5 51t-82 87t-28.5 126.5z" />
<glyph unicode="t" horiz-adv-x="757" d="M61 897v168h162l4 240l232 16l-8 -256h305v-168h-305q-4 -340 -5 -498q0 -141 34 -192t116 -51q76 0 178 41l-8 -168q-106 -53 -236 -54q-170 0 -241.5 75t-71.5 253q0 41 6 594h-162z" />
<glyph unicode="u" horiz-adv-x="1366" d="M74 897v168h370q-8 -422 -8 -637q0 -117 54.5 -188.5t154.5 -71.5q117 0 195 89t80 235l4 405h-140v168h369l-4 -897h143v-168h-368q0 106 20 236h-4q-31 -117 -137.5 -189t-235.5 -72q-170 0 -265 110t-95 298q0 287 8 514h-141z" />
<glyph unicode="v" horiz-adv-x="1175" d="M-6 897v168h475v-168h-115l211 -575q8 -25 19.5 -70t15.5 -59h4l31 129l207 575h-135v168h475v-168h-111l-362 -897h-242l-367 897h-106z" />
<glyph unicode="w" horiz-adv-x="1820" d="M10 897v168h475v-168h-120l196 -541q10 -27 45 -151h4q39 123 52 151l167 400l-51 141h-119v168h476v-168h-127l194 -549q6 -14 39 -143h4q33 129 39 143l201 549h-150v168h475v-168h-108l-359 -897h-241l-150 418q-8 20 -32 114h-5q-25 -94 -32 -114l-174 -418h-230 l-356 897h-113z" />
<glyph unicode="x" horiz-adv-x="1290" d="M61 0v168h117l338 369l-313 360h-123v168h512v-168h-129q14 -12 39 -37l170 -198l176 198q18 20 41 33v4h-139v168h450v-168h-113l-317 -336l340 -393h119v-168h-512v168h133q-27 25 -39 37l-190 221l-203 -221q-18 -20 -41 -33v-4h147v-168h-463z" />
<glyph unicode="y" d="M-6 897v168h487v-168h-119l205 -547q12 -31 28.5 -92t18.5 -68h4q14 63 48 160l188 547h-139v168h450v-168h-106l-324 -891q-106 -295 -168 -375q-131 -170 -366 -170q-86 0 -146 23v180q51 -23 150 -22q88 0 157.5 58t131.5 220l8 23l-393 954h-115z" />
<glyph unicode="z" horiz-adv-x="1099" d="M82 0v168l590 674q14 16 59 55h-414l-16 -158h-192l16 326h885v-172l-578 -653q-14 -16 -74 -72h451l16 164h193l-17 -332h-919z" />
<glyph unicode="{" horiz-adv-x="606" d="M41 453v155q78 4 135 74t57 164v424q0 141 77 223t184 82h129v-156h-56q-117 0 -116 -155v-418q0 -123 -61.5 -204t-156.5 -110v-4q94 -29 156 -109.5t62 -203.5v-418q0 -156 116 -155h56v-156h-129q-106 0 -183.5 82t-77.5 223v424q0 94 -57 164t-135 74z" />
<glyph unicode="|" horiz-adv-x="454" d="M143 -512v2048h168v-2048h-168z" />
<glyph unicode="}" horiz-adv-x="606" d="M-16 -358h55q117 0 117 155v418q0 123 61.5 204t155.5 109v4q-94 29 -155.5 110t-61.5 204v418q0 156 -117 155h-55v156h129q106 0 183 -82t77 -223v-424q0 -94 57 -164t135 -74v-155q-78 -4 -135 -74t-57 -164v-424q0 -141 -77 -223t-183 -82h-129v156z" />
<glyph unicode="~" horiz-adv-x="1228" d="M141 500q92 174 256 174q86 0 234 -72q156 -72 203 -72q39 0 74.5 28t53 51.5t52.5 74.5l73 -147q-92 -174 -256 -175q-78 0 -233 72q-143 72 -203 72q-39 0 -74.5 -27.5t-53 -51.5t-52.5 -75z" />
<glyph unicode="&#xa1;" horiz-adv-x="606" d="M145 931.5q0 65.5 46.5 112t112 46.5t111.5 -46.5t46 -112t-46 -111.5t-111.5 -46t-112 46t-46.5 111.5zM170 -514l25 1102h217l24 -1102h-266z" />
<glyph unicode="&#xa2;" horiz-adv-x="1212" d="M121 526q0 227 124 381t347 174l4 213h156l-4 -204q96 0 194 -18.5t137 -37.5v-301h-180v158q-84 18 -151 18l-5 -741q176 4 310 61l-13 -198q-158 -49 -297 -56l-4 -249h-155l4 249q-240 29 -353.5 186.5t-113.5 364.5zM350 549q0 -313 238 -381l4 733 q-117 -12 -179.5 -114.5t-62.5 -237.5z" />
<glyph unicode="&#xa3;" horiz-adv-x="1212" d="M61 0v168h156q55 68 55 254q0 129 -10 237h-184v168h178q-8 78 -8 183q0 219 141 336.5t387 117.5q211 0 357 -57v-371h-193v226q-100 23 -168 22q-158 0 -226.5 -80t-68.5 -200q0 -82 8 -177h279v-168h-272q0 -18 5 -88.5t5 -115.5q0 -217 -68 -287h496l12 233h193 l-13 -401h-1061z" />
<glyph unicode="&#xa4;" horiz-adv-x="1212" d="M88 295l115 115q-104 133 -104.5 307t104.5 307l-115 115l94 94l115 -115q133 106 309 106.5t309 -106.5l115 115l94 -94l-114 -115q104 -133 104 -307t-104 -307l114 -115l-94 -94l-115 114q-135 -106 -309 -106t-309 106l-115 -114zM266 716.5q0 -153.5 98.5 -259 t242 -105.5t241.5 105.5t98 259t-98 259t-241.5 105.5t-242 -105.5t-98.5 -259z" />
<glyph unicode="&#xa5;" horiz-adv-x="1212" d="M6 1266v168h438v-168h-118l301 -523l297 523h-131v168h413v-168h-102l-313 -553h213v-131h-293l-4 -119h297v-131h-297l-5 -164h125v-168h-438v168h121l4 164h-305v131h305l4 119h-309v131h225l-325 553h-103z" />
<glyph unicode="&#xa6;" horiz-adv-x="454" d="M143 -358v716h168v-716h-168zM143 666v716h168v-716h-168z" />
<glyph unicode="&#xa7;" horiz-adv-x="1212" d="M150 -35h204v-166q113 -43 224 -43q109 0 177 45t68 142q0 57 -35.5 91t-107.5 66l-320 140q-207 88 -206 284q0 66 18 117t54 86t64.5 55.5t71.5 42.5q-94 45 -142 109.5t-48 167.5q0 172 128 264t337 92q213 0 391 -69v-273h-205v144q-84 31 -184 30q-113 0 -175.5 -43 t-62.5 -119q0 -55 31 -86.5t105 -64.5l299 -133q227 -100 227 -305q0 -197 -197 -295q186 -88 187 -283q0 -186 -134.5 -285.5t-367.5 -99.5q-205 0 -401 86v303zM371 575q0 -49 32.5 -92t90.5 -67l243 -105l47 37q74 57 74 141q0 92 -113 148l-241 119l-47 -31 q-86 -54 -86 -150z" />
<glyph unicode="&#xa8;" horiz-adv-x="569" d="M-86 1400.5q0 59.5 43 102.5t102.5 43t102.5 -43t43 -102.5t-43 -102.5t-102.5 -43t-102.5 43t-43 102.5zM365 1400.5q0 59.5 43 102.5t102 43t102 -43t43 -102.5t-43 -102.5t-102 -43t-102 43t-43 102.5z" />
<glyph unicode="&#xa9;" horiz-adv-x="1638" d="M78 717q0 307 217 524t524 217t524.5 -217t217.5 -524t-217.5 -524.5t-524.5 -217.5t-524 217.5t-217 524.5zM258 717q0 -250 163 -412t398.5 -162t398 162t162.5 412t-162.5 411.5t-398 161.5t-398.5 -161.5t-163 -411.5zM424 719q0 205 113.5 325.5t304.5 120.5 q141 0 238.5 -80.5t117.5 -226.5h-162q-27 152 -198 152q-115 0 -180.5 -82t-65.5 -209q0 -131 67.5 -212t186.5 -81q76 0 129 43t61 119h168q-25 -147 -126 -232.5t-251 -85.5q-182 0 -292.5 122t-110.5 327z" />
<glyph unicode="&#xaa;" horiz-adv-x="788" d="M51 979q0 59 30 101t85 63.5t107.5 31t123.5 13.5l103 6v37q0 115 -150 115q-63 0 -125 -23v-74h-131v158q129 57 285 57q152 0 214 -61.5t62 -181.5q0 -16 -6 -299h88v-107h-229q0 63 8 129h-6q-49 -145 -225 -145q-123 0 -178.5 54t-55.5 126zM219 993q0 -29 25.5 -51 t77.5 -24q78 0 126 46t48 103v25q-172 -10 -224.5 -29t-52.5 -70z" />
<glyph unicode="&#xab;" horiz-adv-x="1062" d="M82 518v131l274 312l160 -127l-217 -252l217 -256l-160 -123zM547 518v131l274 312l160 -127l-217 -252l217 -256l-160 -123z" />
<glyph unicode="&#xac;" horiz-adv-x="1228" d="M96 631v168h1037v-578h-168v410h-869z" />
<glyph unicode="&#xad;" horiz-adv-x="833" d="M135 479v205h563v-205h-563z" />
<glyph unicode="&#xae;" horiz-adv-x="1638" d="M78 717q0 307 217 524t524 217t524.5 -217t217.5 -524t-217.5 -524.5t-524.5 -217.5t-524 217.5t-217 524.5zM258 717q0 -250 163 -412t398.5 -162t398 162t162.5 412t-162.5 411.5t-398 161.5t-398.5 -161.5t-163 -411.5zM504 293v848h325q160 0 239 -58.5t79 -185.5 q0 -201 -217 -242l227 -362h-168l-215 356h-127v-356h-143zM647 780h178q98 0 138.5 31t40.5 92q0 106 -179 107h-178v-230z" />
<glyph unicode="&#xaf;" horiz-adv-x="569" d="M-20 1327v168h610v-168h-610z" />
<glyph unicode="&#xb0;" horiz-adv-x="819" d="M117 1171.5q0 120.5 86 206.5t206.5 86t206.5 -86t86 -206.5t-86 -206.5t-206.5 -86t-206.5 86t-86 206.5zM260 1171.5q0 -61.5 44 -105.5t105.5 -44t105.5 44t44 105.5t-44 105.5t-105.5 44t-105.5 -44t-44 -105.5z" />
<glyph unicode="&#xb1;" horiz-adv-x="1228" d="M96 0v168h1037v-168h-1037zM96 567v168h434v301h168v-301h435v-168h-435v-301h-168v301h-434z" />
<glyph unicode="&#xb2;" horiz-adv-x="788" d="M66 582v135l45 28q55 37 117.5 84.5t137 114t123 138t48.5 127t-37 90t-105 34.5q-82 0 -122 -52t-40 -101h-167q0 43 15 88t50 91t104.5 75.5t163.5 29.5q317 0 318 -247q0 -102 -83 -197.5t-257 -235.5q-41 -35 -94 -63v-4q6 0 50 4t62 4h328v-143h-657z" />
<glyph unicode="&#xb3;" horiz-adv-x="788" d="M61 1214q0 84 79 167t253 83q147 0 222 -59t75 -154q0 -86 -59.5 -138t-147.5 -64v-5q104 -6 174 -65t70 -156q0 -119 -95 -190.5t-288 -71.5q-143 0 -266 47v146q123 -61 256 -62q88 0 150.5 33t62.5 100q0 139 -225 140h-56v118h19q88 0 156.5 37t68.5 115 q0 41 -35 69.5t-92 28.5q-78 0 -116 -40t-38 -79h-168z" />
<glyph unicode="&#xb4;" horiz-adv-x="569" d="M94 1286l414 344l123 -114l-408 -328z" />
<glyph unicode="&#xb5;" horiz-adv-x="1366" d="M74 897v168h370q-8 -422 -8 -637q0 -117 54.5 -188.5t154.5 -71.5q117 0 195 89t80 235l4 405h-140v168h369l-4 -897h143v-168h-368q0 106 20 236h-4q-35 -115 -132 -188t-204 -73q-113 0 -158 66h-4l-4 -555h-231l8 1411h-141z" />
<glyph unicode="&#xb6;" horiz-adv-x="1228" d="M98 1049q0 199 126 292t351 93h508v-1833h-192v1665h-215v-1665h-193v1075q-160 0 -272.5 106.5t-112.5 266.5z" />
<glyph unicode="&#xb7;" horiz-adv-x="606" d="M158 573.5q0 59.5 43 102.5t102 43t102.5 -43t43.5 -102.5t-43.5 -102.5t-102.5 -43t-102 43t-43 102.5z" />
<glyph unicode="&#xb8;" horiz-adv-x="569" d="M76 -444l12 127q92 -27 170 -27q119 0 119 76q0 74 -137 73h-23v222h143v-136h29q84 0 132 -42t48 -121q0 -98 -79.5 -150.5t-188.5 -52.5q-129 0 -225 31z" />
<glyph unicode="&#xb9;" horiz-adv-x="788" d="M66 1262l319 182h150l-9 -731h189v-131h-537v131h168l8 587q-31 -27 -57 -43l-156 -96z" />
<glyph unicode="&#xba;" horiz-adv-x="788" d="M37 1118q0 154 102.5 250t266.5 96q180 0 263 -99t83 -237q0 -143 -93.5 -236t-269.5 -93q-178 0 -265 92t-87 227zM205 1124q0 -84 48 -145t140 -61q94 0 142.5 64.5t48.5 160.5q0 100 -50.5 151.5t-130.5 51.5q-100 0 -149 -66t-49 -156z" />
<glyph unicode="&#xbb;" horiz-adv-x="1062" d="M82 330l217 252l-217 256l160 123l274 -316v-131l-274 -311zM547 330l217 252l-217 256l160 123l274 -316v-131l-274 -311z" />
<glyph unicode="&#xbc;" horiz-adv-x="1820" d="M20 1262l320 182h149l-8 -731h189v-131h-537v131h168l8 587q-31 -27 -57 -43l-156 -96zM406 -37l888 1587l133 -80l-888 -1587zM961 238v122l393 502h229l-4 -493h164v-131h-164v-107h102v-131h-378v131h108v107h-450zM1128 365q45 4 70 4h213l4 358l-4 4z" />
<glyph unicode="&#xbd;" horiz-adv-x="1820" d="M20 1262l320 182h149l-8 -731h189v-131h-537v131h168l8 587q-31 -27 -57 -43l-156 -96zM406 -37l888 1587l133 -80l-888 -1587zM1065 0v135l45 29q55 37 117.5 84t137.5 113.5t123 138t48 127t-37 90.5t-104 35q-82 0 -122 -52.5t-40 -101.5h-168q0 43 15.5 88t50 91 t104.5 76t164 30q317 0 317 -248q0 -102 -83 -197.5t-257 -234.5q-41 -35 -94 -64v-4q6 0 50 4t63 4h327v-143h-657z" />
<glyph unicode="&#xbe;" horiz-adv-x="1820" d="M78 1214q0 84 79 167t253 83q147 0 222 -59t75 -154q0 -86 -59.5 -138t-147.5 -64v-5q104 -6 173.5 -65t69.5 -156q0 -119 -95 -190.5t-288 -71.5q-143 0 -266 47v146q123 -61 256 -62q88 0 150.5 33t62.5 100q0 139 -225 140h-55v118h18q88 0 156.5 37t68.5 115 q0 41 -34.5 69.5t-92.5 28.5q-78 0 -115.5 -40t-37.5 -79h-168zM406 -37l888 1587l133 -80l-888 -1587zM961 238v122l393 502h229l-4 -493h164v-131h-164v-107h102v-131h-378v131h108v107h-450zM1128 365q45 4 70 4h213l4 358l-4 4z" />
<glyph unicode="&#xbf;" horiz-adv-x="985" d="M98 -164q0 219 217 361l189 120q51 33 69.5 58.5t18.5 66.5q0 49 -41 95l-12 12l202 76l17 -21q63 -88 63 -174q0 -51 -20.5 -94t-64.5 -81t-77.5 -61.5t-93.5 -56.5q-117 -66 -165 -130t-48 -154q0 -96 79 -153.5t194 -57.5q133 0 225 43l12 -181q-129 -43 -287 -43 q-229 0 -353 103.5t-124 271.5zM504 931.5q0 65.5 46 112t111.5 46.5t111.5 -46.5t46 -112t-46 -111.5t-111.5 -46t-111.5 46t-46 111.5z" />
<glyph unicode="&#xc0;" horiz-adv-x="1554" d="M25 0v168h122l521 1266h254l481 -1266h127v-168h-524v168h131l-123 356h-504l-133 -356h147v-168h-499zM432 1806l123 115l414 -344l-129 -98zM575 705h379l-141 405q-25 70 -37 131h-4q-14 -68 -39 -131z" />
<glyph unicode="&#xc1;" horiz-adv-x="1554" d="M25 0v168h122l521 1266h254l481 -1266h127v-168h-524v168h131l-123 356h-504l-133 -356h147v-168h-499zM575 705h379l-141 405q-25 70 -37 131h-4q-14 -68 -39 -131zM588 1577l413 344l123 -115l-407 -327z" />
<glyph unicode="&#xc2;" horiz-adv-x="1554" d="M25 0v168h122l521 1266h254l481 -1266h127v-168h-524v168h131l-123 356h-504l-133 -356h147v-168h-499zM371 1604l334 286h147l334 -286l-135 -111l-273 242l-274 -242zM575 705h379l-141 405q-25 70 -37 131h-4q-14 -68 -39 -131z" />
<glyph unicode="&#xc3;" horiz-adv-x="1554" d="M25 0v168h122l521 1266h254l481 -1266h127v-168h-524v168h131l-123 356h-504l-133 -356h147v-168h-499zM385 1642l16 31q18 35 44 67t81.5 64.5t118.5 32.5q76 0 160 -55q94 -55 127 -56q10 0 21.5 4.5t17.5 7.5t17 12t14.5 12t13.5 18l12 14l23 27l120 -86l-22 -31 q-53 -72 -99 -108.5t-116 -36.5q-57 0 -159.5 55t-129.5 55q-57 0 -102 -76l-15 -24zM575 705h379l-141 405q-25 70 -37 131h-4q-14 -68 -39 -131z" />
<glyph unicode="&#xc4;" horiz-adv-x="1554" d="M25 0v168h122l521 1266h254l481 -1266h127v-168h-524v168h131l-123 356h-504l-133 -356h147v-168h-499zM408 1691.5q0 59.5 43 102.5t102 43t102 -43t43 -102.5t-43 -102.5t-102 -43t-102 43t-43 102.5zM575 705h379l-141 405q-25 70 -37 131h-4q-14 -68 -39 -131z M858 1691.5q0 59.5 43 102.5t102.5 43t102.5 -43t43 -102.5t-43 -102.5t-102.5 -43t-102.5 43t-43 102.5z" />
<glyph unicode="&#xc5;" horiz-adv-x="1554" d="M25 0v168h122l521 1266h254l481 -1266h127v-168h-524v168h131l-123 356h-504l-133 -356h147v-168h-499zM557 1677q0 86 63.5 147.5t157.5 61.5t157.5 -61.5t63.5 -147.5t-63.5 -147.5t-157.5 -61.5t-157.5 61.5t-63.5 147.5zM575 705h379l-141 405q-25 70 -37 131h-4 q-14 -68 -39 -131zM688 1677q0 -39 27.5 -64.5t62.5 -25.5t62.5 25.5t27.5 64.5t-27.5 64.5t-62.5 25.5t-62.5 -25.5t-27.5 -64.5z" />
<glyph unicode="&#xc6;" horiz-adv-x="2048" d="M4 0v168h125l713 1266h1042l12 -375h-192l-12 207h-387l-5 -475h392v-181h-392l-4 -442h443l16 235h193l-17 -403h-1009v168h145l4 442h-471l-242 -442h158v-168h-512zM688 791h383l4 475h-131z" />
<glyph unicode="&#xc7;" horiz-adv-x="1402" d="M84 702q0 338 211 547t565 209q254 0 447 -78v-366h-205v229q-129 35 -244 35q-254 0 -387 -147.5t-133 -419.5q0 -246 135 -400.5t354 -154.5q150 0 256 20l9 258h204l-8 -391q-172 -55 -387 -68v-84h29q84 0 132 -42t48 -121q0 -98 -80 -150.5t-188 -52.5 q-129 0 -226 31l13 127q92 -27 170 -27q119 0 119 76q0 74 -138 73h-22v170q-330 25 -502 224.5t-172 502.5z" />
<glyph unicode="&#xc8;" d="M80 1266v168h1007l9 -377h-191l-12 209h-416l-4 -443h410v-180h-410l-4 -475h436l17 233h192l-16 -401h-1004v168h144l8 1098h-166zM262 1806l123 115l414 -344l-129 -98z" />
<glyph unicode="&#xc9;" d="M80 1266v168h1007l9 -377h-191l-12 209h-416l-4 -443h410v-180h-410l-4 -475h436l17 233h192l-16 -401h-1004v168h144l8 1098h-166zM418 1577l413 344l123 -115l-407 -327z" />
<glyph unicode="&#xca;" d="M80 1266v168h1007l9 -377h-191l-12 209h-416l-4 -443h410v-180h-410l-4 -475h436l17 233h192l-16 -401h-1004v168h144l8 1098h-166zM201 1604l334 286h147l334 -286l-135 -111l-273 242l-274 -242z" />
<glyph unicode="&#xcb;" d="M80 1266v168h1007l9 -377h-191l-12 209h-416l-4 -443h410v-180h-410l-4 -475h436l17 233h192l-16 -401h-1004v168h144l8 1098h-166zM238 1691.5q0 59.5 43 102.5t102 43t102 -43t43 -102.5t-43 -102.5t-102 -43t-102 43t-43 102.5zM688 1691.5q0 59.5 43 102.5t102.5 43 t102.5 -43t43 -102.5t-43 -102.5t-102.5 -43t-102.5 43t-43 102.5z" />
<glyph unicode="&#xcc;" horiz-adv-x="720" d="M14 1806l123 115l414 -344l-129 -98zM96 0v168h146l8 1098h-154v168h529v-168h-146l-8 -1098h154v-168h-529z" />
<glyph unicode="&#xcd;" horiz-adv-x="720" d="M96 0v168h146l8 1098h-154v168h529v-168h-146l-8 -1098h154v-168h-529zM170 1577l414 344l123 -115l-408 -327z" />
<glyph unicode="&#xce;" horiz-adv-x="720" d="M-47 1604l334 286h147l334 -286l-135 -111l-273 242l-274 -242zM96 0v168h146l8 1098h-154v168h529v-168h-146l-8 -1098h154v-168h-529z" />
<glyph unicode="&#xcf;" horiz-adv-x="720" d="M-10 1691.5q0 59.5 43 102.5t102.5 43t102.5 -43t43 -102.5t-43 -102.5t-102.5 -43t-102.5 43t-43 102.5zM96 0v168h146l8 1098h-154v168h529v-168h-146l-8 -1098h154v-168h-529zM440 1691.5q0 59.5 43 102.5t102.5 43t102.5 -43t43 -102.5t-43 -102.5t-102.5 -43 t-102.5 43t-43 102.5z" />
<glyph unicode="&#xd0;" horiz-adv-x="1593" d="M80 0v168h145l4 491h-149v156h149l4 451h-153v168h680q342 0 533.5 -184.5t191.5 -499.5q0 -328 -195.5 -539t-531.5 -211h-678zM455 168h229q262 0 404.5 150.5t142.5 420.5q0 246 -138.5 386.5t-398.5 140.5h-231l-4 -451h407v-156h-407z" />
<glyph unicode="&#xd1;" horiz-adv-x="1630" d="M55 1266v168h377l664 -867q63 -84 143 -215h4l-8 914h-160v168h500v-168h-139l-9 -1266h-186l-717 930q-70 92 -100 151l-4 -4l8 -909h158v-168h-498v168h139l9 1098h-181zM422 1642l16 31q18 35 44 67t81 64.5t119 32.5q76 0 160 -55q94 -55 127 -56q10 0 21 4.5 t17.5 7.5t17.5 12t14 12t14 18l12 14l22 27l121 -86l-22 -31q-53 -72 -99.5 -108.5t-115.5 -36.5q-57 0 -159.5 55t-129.5 55q-57 0 -102 -76l-15 -24z" />
<glyph unicode="&#xd2;" horiz-adv-x="1554" d="M84 692q0 340 197.5 553t525.5 213q309 0 486 -192.5t177 -524.5q0 -145 -43 -279t-126.5 -245t-222 -176.5t-312.5 -65.5q-313 0 -497.5 193.5t-184.5 523.5zM338 702q0 -225 111.5 -379.5t324.5 -154.5q133 0 227.5 58.5t137.5 152.5t60.5 178t17.5 172 q0 82 -11.5 154.5t-41 144.5t-76 123t-122 83t-173.5 32q-197 0 -326 -140.5t-129 -423.5zM432 1806l123 115l414 -344l-129 -98z" />
<glyph unicode="&#xd3;" horiz-adv-x="1554" d="M84 692q0 340 197.5 553t525.5 213q309 0 486 -192.5t177 -524.5q0 -145 -43 -279t-126.5 -245t-222 -176.5t-312.5 -65.5q-313 0 -497.5 193.5t-184.5 523.5zM338 702q0 -225 111.5 -379.5t324.5 -154.5q133 0 227.5 58.5t137.5 152.5t60.5 178t17.5 172 q0 82 -11.5 154.5t-41 144.5t-76 123t-122 83t-173.5 32q-197 0 -326 -140.5t-129 -423.5zM588 1577l413 344l123 -115l-407 -327z" />
<glyph unicode="&#xd4;" horiz-adv-x="1554" d="M84 692q0 340 197.5 553t525.5 213q309 0 486 -192.5t177 -524.5q0 -145 -43 -279t-126.5 -245t-222 -176.5t-312.5 -65.5q-313 0 -497.5 193.5t-184.5 523.5zM338 702q0 -225 111.5 -379.5t324.5 -154.5q133 0 227.5 58.5t137.5 152.5t60.5 178t17.5 172 q0 82 -11.5 154.5t-41 144.5t-76 123t-122 83t-173.5 32q-197 0 -326 -140.5t-129 -423.5zM371 1604l334 286h147l334 -286l-135 -111l-273 242l-274 -242z" />
<glyph unicode="&#xd5;" horiz-adv-x="1554" d="M84 692q0 340 197.5 553t525.5 213q309 0 486 -192.5t177 -524.5q0 -145 -43 -279t-126.5 -245t-222 -176.5t-312.5 -65.5q-313 0 -497.5 193.5t-184.5 523.5zM338 702q0 -225 111.5 -379.5t324.5 -154.5q133 0 227.5 58.5t137.5 152.5t60.5 178t17.5 172 q0 82 -11.5 154.5t-41 144.5t-76 123t-122 83t-173.5 32q-197 0 -326 -140.5t-129 -423.5zM385 1642l16 31q18 35 44 67t81.5 64.5t118.5 32.5q76 0 160 -55q94 -55 127 -56q10 0 21.5 4.5t17.5 7.5t17 12t14.5 12t13.5 18l12 14l23 27l120 -86l-22 -31q-53 -72 -99 -108.5 t-116 -36.5q-57 0 -159.5 55t-129.5 55q-57 0 -102 -76l-15 -24z" />
<glyph unicode="&#xd6;" horiz-adv-x="1554" d="M84 692q0 340 197.5 553t525.5 213q309 0 486 -192.5t177 -524.5q0 -145 -43 -279t-126.5 -245t-222 -176.5t-312.5 -65.5q-313 0 -497.5 193.5t-184.5 523.5zM338 702q0 -225 111.5 -379.5t324.5 -154.5q133 0 227.5 58.5t137.5 152.5t60.5 178t17.5 172 q0 82 -11.5 154.5t-41 144.5t-76 123t-122 83t-173.5 32q-197 0 -326 -140.5t-129 -423.5zM408 1691.5q0 59.5 43 102.5t102 43t102 -43t43 -102.5t-43 -102.5t-102 -43t-102 43t-43 102.5zM858 1691.5q0 59.5 43 102.5t102.5 43t102.5 -43t43 -102.5t-43 -102.5t-102.5 -43 t-102.5 43t-43 102.5z" />
<glyph unicode="&#xd7;" horiz-adv-x="1228" d="M141 158l361 360l-361 361l113 112l360 -360l361 360l112 -112l-360 -361l360 -360l-112 -113l-361 361l-360 -361z" />
<glyph unicode="&#xd8;" horiz-adv-x="1554" d="M84 692q0 340 197.5 553t525.5 213q166 0 297 -59l141 229l127 -82l-137 -225q236 -190 235 -580q0 -145 -43 -279t-126.5 -245t-222 -176.5t-312.5 -65.5q-176 0 -313 64l-162 -264l-127 82l162 264q-242 188 -242 571zM338 702q0 -236 111 -378l546 897q-84 45 -202 45 q-197 0 -326 -140.5t-129 -423.5zM565 221q90 -53 209 -53q133 0 227.5 58.5t137.5 152.5t60.5 178t17.5 172q0 254 -105 391z" />
<glyph unicode="&#xd9;" horiz-adv-x="1554" d="M61 1266v168h525v-168h-146l-2 -719q0 -70 3 -114t22.5 -98t54.5 -87q86 -80 256 -80q109 0 169.5 17.5t107.5 64.5t63 113.5t19 177.5l4 725h-168v168h524v-168h-137l-4 -770q0 -266 -160 -404q-139 -117 -420 -117q-289 0 -430 119q-76 63 -104.5 156.5t-28.5 243.5 q0 276 4 772h-152zM432 1806l123 115l414 -344l-129 -98z" />
<glyph unicode="&#xda;" horiz-adv-x="1554" d="M61 1266v168h525v-168h-146l-2 -719q0 -70 3 -114t22.5 -98t54.5 -87q86 -80 256 -80q109 0 169.5 17.5t107.5 64.5t63 113.5t19 177.5l4 725h-168v168h524v-168h-137l-4 -770q0 -266 -160 -404q-139 -117 -420 -117q-289 0 -430 119q-76 63 -104.5 156.5t-28.5 243.5 q0 276 4 772h-152zM588 1577l413 344l123 -115l-407 -327z" />
<glyph unicode="&#xdb;" horiz-adv-x="1554" d="M61 1266v168h525v-168h-146l-2 -719q0 -70 3 -114t22.5 -98t54.5 -87q86 -80 256 -80q109 0 169.5 17.5t107.5 64.5t63 113.5t19 177.5l4 725h-168v168h524v-168h-137l-4 -770q0 -266 -160 -404q-139 -117 -420 -117q-289 0 -430 119q-76 63 -104.5 156.5t-28.5 243.5 q0 276 4 772h-152zM371 1604l334 286h147l334 -286l-135 -111l-273 242l-274 -242z" />
<glyph unicode="&#xdc;" horiz-adv-x="1554" d="M61 1266v168h525v-168h-146l-2 -719q0 -70 3 -114t22.5 -98t54.5 -87q86 -80 256 -80q109 0 169.5 17.5t107.5 64.5t63 113.5t19 177.5l4 725h-168v168h524v-168h-137l-4 -770q0 -266 -160 -404q-139 -117 -420 -117q-289 0 -430 119q-76 63 -104.5 156.5t-28.5 243.5 q0 276 4 772h-152zM408 1691.5q0 59.5 43 102.5t102 43t102 -43t43 -102.5t-43 -102.5t-102 -43t-102 43t-43 102.5zM858 1691.5q0 59.5 43 102.5t102.5 43t102.5 -43t43 -102.5t-43 -102.5t-102.5 -43t-102.5 43t-43 102.5z" />
<glyph unicode="&#xdd;" horiz-adv-x="1478" d="M8 1266v168h524v-168h-139q25 -25 41 -49l330 -449l326 449q12 18 43 49h-162v168h499v-168h-127l-483 -674l-8 -424h152v-168h-525v168h144l8 424l-498 674h-125zM549 1577l414 344l122 -115l-407 -327z" />
<glyph unicode="&#xde;" d="M80 0v168h145l8 1098h-153v168h528v-168h-145v-99h158q139 0 211.5 -14t130.5 -49q86 -51 135 -144.5t49 -207.5q0 -119 -55.5 -223.5t-145.5 -157.5q-117 -68 -278 -68h-211l-2 -135h153v-168h-528zM457 471h161q147 0 217 73.5t70 198.5q0 123 -80 195q-72 61 -237 61 h-127z" />
<glyph unicode="&#xdf;" horiz-adv-x="1517" d="M86 897v168h162l2 102q6 186 152.5 309t398.5 123q72 0 143.5 -11t158.5 -40.5t141 -98.5t54 -167q0 -172 -149 -266l-137 -88q-106 -68 -107 -133q0 -39 18.5 -59.5t69.5 -41.5l234 -90q104 -41 154.5 -107.5t50.5 -177.5q0 -160 -117 -247.5t-285 -87.5q-172 0 -336 41 v290h180v-143q74 -20 177 -20q74 0 118.5 42t44.5 107q0 49 -22.5 79t-83.5 50l-219 78q-201 72 -201 246q0 76 28.5 127t102.5 104l174 127q88 63 88 154q0 57 -68.5 105t-201.5 48q-164 0 -250 -82t-86 -219l-4 -950h131v-168h-487v168h129l4 729h-162z" />
<glyph unicode="&#xe0;" d="M119 281q0 303 459 325l219 12v80q0 109 -51.5 166.5t-184.5 57.5q-102 0 -192 -37v-156h-205v264q207 96 422 97q225 0 320 -103.5t95 -304.5q0 -98 -4 -277.5t-4 -236.5h144v-168h-338q0 115 18 221h-4q-92 -246 -354 -246q-174 0 -257 92.5t-83 213.5zM262 1516 l123 114l414 -344l-129 -98zM348 299q0 -61 45 -102t125 -41q127 0 201 80.5t74 189.5v43q-70 0 -116 -2t-103.5 -7t-93.5 -17.5t-68.5 -30t-48 -46t-15.5 -67.5z" />
<glyph unicode="&#xe1;" d="M119 281q0 303 459 325l219 12v80q0 109 -51.5 166.5t-184.5 57.5q-102 0 -192 -37v-156h-205v264q207 96 422 97q225 0 320 -103.5t95 -304.5q0 -98 -4 -277.5t-4 -236.5h144v-168h-338q0 115 18 221h-4q-92 -246 -354 -246q-174 0 -257 92.5t-83 213.5zM348 299 q0 -61 45 -102t125 -41q127 0 201 80.5t74 189.5v43q-70 0 -116 -2t-103.5 -7t-93.5 -17.5t-68.5 -30t-48 -46t-15.5 -67.5zM418 1286l413 344l123 -114l-407 -328z" />
<glyph unicode="&#xe2;" d="M119 281q0 303 459 325l219 12v80q0 109 -51.5 166.5t-184.5 57.5q-102 0 -192 -37v-156h-205v264q207 96 422 97q225 0 320 -103.5t95 -304.5q0 -98 -4 -277.5t-4 -236.5h144v-168h-338q0 115 18 221h-4q-92 -246 -354 -246q-174 0 -257 92.5t-83 213.5zM188 1313 l334 286h148l334 -286l-136 -111l-272 242l-274 -242zM348 299q0 -61 45 -102t125 -41q127 0 201 80.5t74 189.5v43q-70 0 -116 -2t-103.5 -7t-93.5 -17.5t-68.5 -30t-48 -46t-15.5 -67.5z" />
<glyph unicode="&#xe3;" d="M119 281q0 303 459 325l219 12v80q0 109 -51.5 166.5t-184.5 57.5q-102 0 -192 -37v-156h-205v264q207 96 422 97q225 0 320 -103.5t95 -304.5q0 -98 -4 -277.5t-4 -236.5h144v-168h-338q0 115 18 221h-4q-92 -246 -354 -246q-174 0 -257 92.5t-83 213.5zM203 1352l16 30 q18 35 44 67t81 64.5t119 32.5q78 0 160 -55q94 -55 127 -55q10 0 21 4t17.5 7t17.5 12t14 12.5t16 17.5l10 14l22 27l121 -86l-22 -31q-53 -72 -99.5 -108.5t-115.5 -36.5q-57 0 -160 55t-129 55q-57 0 -103 -75l-14 -25zM348 299q0 -61 45 -102t125 -41q127 0 201 80.5 t74 189.5v43q-70 0 -116 -2t-103.5 -7t-93.5 -17.5t-68.5 -30t-48 -46t-15.5 -67.5z" />
<glyph unicode="&#xe4;" d="M119 281q0 303 459 325l219 12v80q0 109 -51.5 166.5t-184.5 57.5q-102 0 -192 -37v-156h-205v264q207 96 422 97q225 0 320 -103.5t95 -304.5q0 -98 -4 -277.5t-4 -236.5h144v-168h-338q0 115 18 221h-4q-92 -246 -354 -246q-174 0 -257 92.5t-83 213.5zM225 1400.5 q0 59.5 43 102.5t102.5 43t102.5 -43t43 -102.5t-43 -102.5t-102.5 -43t-102.5 43t-43 102.5zM348 299q0 -61 45 -102t125 -41q127 0 201 80.5t74 189.5v43q-70 0 -116 -2t-103.5 -7t-93.5 -17.5t-68.5 -30t-48 -46t-15.5 -67.5zM676 1400.5q0 59.5 43 102.5t102.5 43 t102.5 -43t43 -102.5t-43 -102.5t-102.5 -43t-102.5 43t-43 102.5z" />
<glyph unicode="&#xe5;" d="M119 281q0 303 459 325l219 12v80q0 109 -51.5 166.5t-184.5 57.5q-102 0 -192 -37v-156h-205v264q207 96 422 97q225 0 320 -103.5t95 -304.5q0 -98 -4 -277.5t-4 -236.5h144v-168h-338q0 115 18 221h-4q-92 -246 -354 -246q-174 0 -257 92.5t-83 213.5zM348 299 q0 -61 45 -102t125 -41q127 0 201 80.5t74 189.5v43q-70 0 -116 -2t-103.5 -7t-93.5 -17.5t-68.5 -30t-48 -46t-15.5 -67.5zM375 1366q0 86 63.5 147.5t157.5 61.5t157.5 -61.5t63.5 -147.5t-63.5 -147.5t-157.5 -61.5t-157.5 61.5t-63.5 147.5zM506 1366q0 -39 27.5 -64.5 t62.5 -25.5t62.5 25.5t27.5 64.5t-27.5 64.5t-62.5 25.5t-62.5 -25.5t-27.5 -64.5z" />
<glyph unicode="&#xe6;" horiz-adv-x="1820" d="M119 281q0 303 459 325l219 12v80q0 109 -51.5 166.5t-184.5 57.5q-102 0 -192 -37v-156h-205v264q6 2 41 14.5t59.5 21.5t68.5 21.5t80 20.5t81 13.5t86 5.5q266 0 348 -203q37 88 128 145.5t216 57.5t217 -47.5t142 -129.5t74 -179t24 -214v-24l-728 -21 q0 -319 357 -319q150 0 325 80l-8 -185q-141 -76 -352 -76q-356 0 -438 254h-4q-45 -133 -138.5 -193.5t-257.5 -60.5q-193 0 -279.5 92.5t-86.5 213.5zM348 299q0 -61 45 -102t125 -41q127 0 201 80.5t74 189.5v43q-70 0 -116 -2t-103.5 -7t-93.5 -17.5t-68.5 -30t-48 -46 t-15.5 -67.5zM1001 631l498 20v13q0 96 -59.5 177t-190.5 81q-248 0 -248 -291z" />
<glyph unicode="&#xe7;" horiz-adv-x="1024" d="M74 526q0 252 150.5 408t422.5 156q182 0 303 -56v-301h-192v158q-59 18 -135 18q-154 0 -237 -101t-83 -259q0 -160 89 -270.5t284 -110.5q166 0 272 61l-12 -198q-115 -47 -254 -56v-84h29q84 0 132 -42t48 -121q0 -98 -80 -150.5t-188 -52.5q-127 0 -226 31l13 127 q92 -27 170 -27q119 0 118 76q0 74 -137 73h-22v177q-240 31 -352.5 184t-112.5 360z" />
<glyph unicode="&#xe8;" horiz-adv-x="1138" d="M74 528q0 246 136 404t386 158q233 0 357 -154t124 -410v-30h-762q2 -154 103.5 -247t261.5 -93q182 0 342 82l-12 -189q-176 -74 -375 -74q-262 2 -411.5 151.5t-149.5 401.5zM223 1516l123 114l414 -344l-129 -98zM315 651h521v21q0 88 -61.5 169t-190.5 81 q-133 0 -197 -79t-72 -192z" />
<glyph unicode="&#xe9;" horiz-adv-x="1138" d="M74 528q0 246 136 404t386 158q233 0 357 -154t124 -410v-30h-762q2 -154 103.5 -247t261.5 -93q182 0 342 82l-12 -189q-176 -74 -375 -74q-262 2 -411.5 151.5t-149.5 401.5zM315 651h521v21q0 88 -61.5 169t-190.5 81q-133 0 -197 -79t-72 -192zM379 1286l414 344 l122 -114l-407 -328z" />
<glyph unicode="&#xea;" horiz-adv-x="1138" d="M74 528q0 246 136 404t386 158q233 0 357 -154t124 -410v-30h-762q2 -154 103.5 -247t261.5 -93q182 0 342 82l-12 -189q-176 -74 -375 -74q-262 2 -411.5 151.5t-149.5 401.5zM162 1313l334 286h147l334 -286l-135 -111l-273 242l-274 -242zM315 651h521v21 q0 88 -61.5 169t-190.5 81q-133 0 -197 -79t-72 -192z" />
<glyph unicode="&#xeb;" horiz-adv-x="1138" d="M74 528q0 246 136 404t386 158q233 0 357 -154t124 -410v-30h-762q2 -154 103.5 -247t261.5 -93q182 0 342 82l-12 -189q-176 -74 -375 -74q-262 2 -411.5 151.5t-149.5 401.5zM199 1400.5q0 59.5 43 102.5t102 43t102 -43t43 -102.5t-43 -102.5t-102 -43t-102 43 t-43 102.5zM315 651h521v21q0 88 -61.5 169t-190.5 81q-133 0 -197 -79t-72 -192zM649 1400.5q0 59.5 43 102.5t102.5 43t102.5 -43t43 -102.5t-43 -102.5t-102.5 -43t-102.5 43t-43 102.5z" />
<glyph unicode="&#xec;" horiz-adv-x="645" d="M-23 1516l123 114l414 -344l-129 -98zM61 897v168h392l-4 -897h143v-168h-512v168h139l4 729h-162z" />
<glyph unicode="&#xed;" horiz-adv-x="645" d="M61 897v168h392l-4 -897h143v-168h-512v168h139l4 729h-162zM133 1286l414 344l123 -114l-408 -328z" />
<glyph unicode="&#xee;" horiz-adv-x="645" d="M-84 1313l334 286h147l334 -286l-135 -111l-272 242l-275 -242zM61 897v168h392l-4 -897h143v-168h-512v168h139l4 729h-162z" />
<glyph unicode="&#xef;" horiz-adv-x="645" d="M-47 1400.5q0 59.5 43 102.5t102.5 43t102.5 -43t43 -102.5t-43 -102.5t-102.5 -43t-102.5 43t-43 102.5zM61 897v168h392l-4 -897h143v-168h-512v168h139l4 729h-162zM403 1400.5q0 59.5 43 102.5t102.5 43t102.5 -43t43 -102.5t-43 -102.5t-102.5 -43t-102.5 43 t-43 102.5z" />
<glyph unicode="&#xf0;" d="M68 510q0 256 150.5 418t373.5 162q152 0 242 -72l4 4q-68 133 -205 266l-203 -104l-92 104l188 96q-76 63 -168 119l174 96q94 -57 175 -120l186 96l92 -105l-172 -90q166 -172 250 -355t84 -427q0 -289 -140.5 -456t-408.5 -167q-266 0 -398 155t-132 380zM309 518 q0 -147 75 -248.5t220 -101.5q150 0 225.5 107.5t75.5 275.5q0 172 -78.5 259t-205.5 87q-158 0 -235 -110.5t-77 -268.5z" />
<glyph unicode="&#xf1;" horiz-adv-x="1366" d="M74 897v168h379q0 -106 -21 -236h4q35 113 130.5 187t244.5 74q184 0 277.5 -109t93.5 -303q0 -96 -4 -274.5t-4 -235.5h139v-168h-490v168h121q0 51 4 216t4 253q0 117 -55 188.5t-160 71.5q-121 0 -199.5 -88t-80.5 -236l-8 -405h143v-168h-494v168h121l4 729h-149z M291 1352l16 30q18 35 44 67t81 64.5t119 32.5q76 0 160 -55q94 -55 127 -55q10 0 21 4t17.5 7t17.5 12t14 12.5t14 17.5l12 14l22 27l121 -86l-22 -31q-53 -72 -99.5 -108.5t-115.5 -36.5q-57 0 -159.5 55t-129.5 55q-57 0 -102 -75l-15 -25z" />
<glyph unicode="&#xf2;" d="M68 510q0 260 155.5 420t401.5 160q141 0 246.5 -50.5t163 -134.5t85 -179t27.5 -200q0 -240 -143.5 -395.5t-405.5 -155.5q-266 0 -398 155t-132 380zM262 1516l123 114l414 -344l-129 -98zM309 518q0 -147 75 -248.5t220 -101.5q150 0 225.5 107.5t75.5 275.5 q0 172 -78.5 259t-205.5 87q-158 0 -235 -110.5t-77 -268.5z" />
<glyph unicode="&#xf3;" d="M68 510q0 260 155.5 420t401.5 160q141 0 246.5 -50.5t163 -134.5t85 -179t27.5 -200q0 -240 -143.5 -395.5t-405.5 -155.5q-266 0 -398 155t-132 380zM309 518q0 -147 75 -248.5t220 -101.5q150 0 225.5 107.5t75.5 275.5q0 172 -78.5 259t-205.5 87q-158 0 -235 -110.5 t-77 -268.5zM418 1286l413 344l123 -114l-407 -328z" />
<glyph unicode="&#xf4;" d="M68 510q0 260 155.5 420t401.5 160q141 0 246.5 -50.5t163 -134.5t85 -179t27.5 -200q0 -240 -143.5 -395.5t-405.5 -155.5q-266 0 -398 155t-132 380zM201 1313l334 286h147l334 -286l-135 -111l-273 242l-274 -242zM309 518q0 -147 75 -248.5t220 -101.5 q150 0 225.5 107.5t75.5 275.5q0 172 -78.5 259t-205.5 87q-158 0 -235 -110.5t-77 -268.5z" />
<glyph unicode="&#xf5;" d="M68 510q0 260 155.5 420t401.5 160q141 0 246.5 -50.5t163 -134.5t85 -179t27.5 -200q0 -240 -143.5 -395.5t-405.5 -155.5q-266 0 -398 155t-132 380zM215 1352l16 30q18 35 44 67t81.5 64.5t118.5 32.5q78 0 160 -55q94 -55 127 -55q10 0 21.5 4t17.5 7t17 12 t14.5 12.5t15.5 17.5l10 14l23 27l120 -86l-22 -31q-53 -72 -99 -108.5t-116 -36.5q-57 0 -159.5 55t-129.5 55q-57 0 -102 -75l-15 -25zM309 518q0 -147 75 -248.5t220 -101.5q150 0 225.5 107.5t75.5 275.5q0 172 -78.5 259t-205.5 87q-158 0 -235 -110.5t-77 -268.5z" />
<glyph unicode="&#xf6;" d="M68 510q0 260 155.5 420t401.5 160q141 0 246.5 -50.5t163 -134.5t85 -179t27.5 -200q0 -240 -143.5 -395.5t-405.5 -155.5q-266 0 -398 155t-132 380zM238 1400.5q0 59.5 43 102.5t102 43t102 -43t43 -102.5t-43 -102.5t-102 -43t-102 43t-43 102.5zM309 518 q0 -147 75 -248.5t220 -101.5q150 0 225.5 107.5t75.5 275.5q0 172 -78.5 259t-205.5 87q-158 0 -235 -110.5t-77 -268.5zM688 1400.5q0 59.5 43 102.5t102.5 43t102.5 -43t43 -102.5t-43 -102.5t-102.5 -43t-102.5 43t-43 102.5z" />
<glyph unicode="&#xf7;" horiz-adv-x="1228" d="M96 434v168h1037v-168h-1037zM469 120.5q0 59.5 43 102.5t102.5 43t102.5 -43t43 -102.5t-43 -102.5t-102.5 -43t-102.5 43t-43 102.5zM469 915.5q0 59.5 43 102.5t102.5 43t102.5 -43t43 -102.5t-43 -102.5t-102.5 -43t-102.5 43t-43 102.5z" />
<glyph unicode="&#xf8;" d="M68 510q0 260 155.5 420t401.5 160q121 0 211 -37l116 190l123 -78l-112 -184q184 -154 184 -455q0 -240 -143.5 -395.5t-405.5 -155.5q-135 0 -231 43l-136 -221l-122 82l131 213q-172 146 -172 418zM309 518q0 -129 58 -221l360 580q-47 20 -106 20q-158 0 -235 -110.5 t-77 -268.5zM477 197q51 -29 127 -29q150 0 225.5 107.5t75.5 275.5q0 150 -63 235z" />
<glyph unicode="&#xf9;" horiz-adv-x="1366" d="M74 897v168h370q-8 -422 -8 -637q0 -117 54.5 -188.5t154.5 -71.5q117 0 195 89t80 235l4 405h-140v168h369l-4 -897h143v-168h-368q0 106 20 236h-4q-31 -117 -137.5 -189t-235.5 -72q-170 0 -265 110t-95 298q0 287 8 514h-141zM338 1516l123 114l413 -344l-129 -98z " />
<glyph unicode="&#xfa;" horiz-adv-x="1366" d="M74 897v168h370q-8 -422 -8 -637q0 -117 54.5 -188.5t154.5 -71.5q117 0 195 89t80 235l4 405h-140v168h369l-4 -897h143v-168h-368q0 106 20 236h-4q-31 -117 -137.5 -189t-235.5 -72q-170 0 -265 110t-95 298q0 287 8 514h-141zM494 1286l413 344l123 -114l-407 -328z " />
<glyph unicode="&#xfb;" horiz-adv-x="1366" d="M74 897v168h370q-8 -422 -8 -637q0 -117 54.5 -188.5t154.5 -71.5q117 0 195 89t80 235l4 405h-140v168h369l-4 -897h143v-168h-368q0 106 20 236h-4q-31 -117 -137.5 -189t-235.5 -72q-170 0 -265 110t-95 298q0 287 8 514h-141zM276 1313l334 286h148l334 -286 l-136 -111l-272 242l-274 -242z" />
<glyph unicode="&#xfc;" horiz-adv-x="1366" d="M74 897v168h370q-8 -422 -8 -637q0 -117 54.5 -188.5t154.5 -71.5q117 0 195 89t80 235l4 405h-140v168h369l-4 -897h143v-168h-368q0 106 20 236h-4q-31 -117 -137.5 -189t-235.5 -72q-170 0 -265 110t-95 298q0 287 8 514h-141zM293 1400.5q0 59.5 43 102.5t102.5 43 t102.5 -43t43 -102.5t-43 -102.5t-102.5 -43t-102.5 43t-43 102.5zM743 1400.5q0 59.5 43 102.5t102.5 43t102.5 -43t43 -102.5t-43 -102.5t-102.5 -43t-102.5 43t-43 102.5z" />
<glyph unicode="&#xfd;" d="M-6 897v168h487v-168h-119l205 -547q12 -31 28.5 -92t18.5 -68h4q14 63 48 160l188 547h-139v168h450v-168h-106l-324 -891q-106 -295 -168 -375q-131 -170 -366 -170q-86 0 -146 23v180q51 -23 150 -22q88 0 157.5 58t131.5 220l8 23l-393 954h-115zM418 1286l413 344 l123 -114l-407 -328z" />
<glyph unicode="&#xfe;" horiz-adv-x="1290" d="M53 1407v168h381l-8 -510q0 -117 -27 -217h4q94 242 355 242q197 0 321.5 -136.5t124.5 -369.5q0 -270 -152.5 -439.5t-420.5 -169.5q-121 0 -211 35l-4 -356h170v-168h-510v168h119l8 1753h-150zM428 201q74 -45 205 -45q152 -2 243 113.5t87 279.5q0 156 -67 252 t-191 96q-137 0 -207 -104.5t-70 -294.5v-297z" />
<glyph unicode="&#xff;" d="M-6 897v168h487v-168h-119l205 -547q12 -31 28.5 -92t18.5 -68h4q14 63 48 160l188 547h-139v168h450v-168h-106l-324 -891q-106 -295 -168 -375q-131 -170 -366 -170q-86 0 -146 23v180q51 -23 150 -22q88 0 157.5 58t131.5 220l8 23l-393 954h-115zM238 1400.5 q0 59.5 43 102.5t102 43t102 -43t43 -102.5t-43 -102.5t-102 -43t-102 43t-43 102.5zM688 1400.5q0 59.5 43 102.5t102.5 43t102.5 -43t43 -102.5t-43 -102.5t-102.5 -43t-102.5 43t-43 102.5z" />
<glyph unicode="&#x152;" horiz-adv-x="2086" d="M84 711q0 240 106.5 408.5t281.5 247.5t405 79q78 0 133 -6q8 0 45 -3t57 -3h842l12 -377h-192l-13 209h-432l-4 -443h424v-180h-424l-4 -475h455l16 233h195l-21 -401h-862q-55 0 -125 -6q-141 -6 -150 -6q-344 0 -544.5 183.5t-200.5 539.5zM338 711q0 -266 138 -404.5 t407 -138.5q47 0 207 6l8 1079q-127 12 -180 13q-274 0 -427 -147.5t-153 -407.5z" />
<glyph unicode="&#x153;" horiz-adv-x="1896" d="M84 526q0 252 134 408t386 156q293 0 387 -213q39 82 134.5 147.5t222.5 65.5q125 0 217 -47.5t142 -129.5t73.5 -179t23.5 -214v-24h-727q0 -340 357 -340q150 0 325 80l-8 -185q-141 -76 -352 -76q-156 0 -262.5 46.5t-169.5 175.5q-106 -221 -392 -222 q-246 0 -368.5 144.5t-122.5 406.5zM313 532q0 -170 73 -273t214 -103q129 0 194.5 76.5t65.5 263.5v104q0 166 -65.5 237.5t-194.5 71.5q-141 0 -214 -103.5t-73 -273.5zM1077 651h498v13q0 96 -59.5 177t-190.5 81q-119 0 -183.5 -73t-64.5 -198z" />
<glyph unicode="&#x178;" horiz-adv-x="1478" d="M8 1266v168h524v-168h-139q25 -25 41 -49l330 -449l326 449q12 18 43 49h-162v168h499v-168h-127l-483 -674l-8 -424h152v-168h-525v168h144l8 424l-498 674h-125zM369 1691.5q0 59.5 43 102.5t102 43t102 -43t43 -102.5t-43 -102.5t-102 -43t-102 43t-43 102.5z M819 1691.5q0 59.5 43 102.5t102.5 43t102.5 -43t43 -102.5t-43 -102.5t-102.5 -43t-102.5 43t-43 102.5z" />
<glyph unicode="&#x2c6;" horiz-adv-x="569" d="M-123 1313l334 286h147l334 -286l-135 -111l-272 242l-275 -242z" />
<glyph unicode="&#x2dc;" horiz-adv-x="569" d="M-109 1352l17 30q18 35 43.5 67t81 64.5t119.5 32.5q78 0 159 -55q94 -55 127 -55q10 0 21.5 4t17.5 7t17.5 12t14.5 12.5l15 17.5l11 14l22 27l121 -86l-23 -31q-53 -72 -99 -108.5t-116 -36.5q-57 0 -159.5 55t-128.5 55q-57 0 -103 -75l-14 -25z" />
<glyph unicode="&#x2000;" horiz-adv-x="960" />
<glyph unicode="&#x2001;" horiz-adv-x="1921" />
<glyph unicode="&#x2002;" horiz-adv-x="960" />
<glyph unicode="&#x2003;" horiz-adv-x="1921" />
<glyph unicode="&#x2004;" horiz-adv-x="638" />
<glyph unicode="&#x2005;" horiz-adv-x="479" />
<glyph unicode="&#x2006;" horiz-adv-x="319" />
<glyph unicode="&#x2007;" horiz-adv-x="319" />
<glyph unicode="&#x2008;" horiz-adv-x="239" />
<glyph unicode="&#x2009;" horiz-adv-x="382" />
<glyph unicode="&#x200a;" horiz-adv-x="106" />
<glyph unicode="&#x2010;" horiz-adv-x="833" d="M135 479v205h563v-205h-563z" />
<glyph unicode="&#x2011;" horiz-adv-x="833" d="M135 479v205h563v-205h-563z" />
<glyph unicode="&#x2012;" horiz-adv-x="833" d="M135 479v205h563v-205h-563z" />
<glyph unicode="&#x2013;" horiz-adv-x="1024" d="M0 492v180h1024v-180h-1024z" />
<glyph unicode="&#x2014;" horiz-adv-x="2048" d="M0 492v180h2048v-180h-2048z" />
<glyph unicode="&#x2018;" horiz-adv-x="606" d="M119 1139q0 96 47 203.5t139 189.5l78 67l104 -102l-34 -35q-104 -104 -105 -186q0 -59 53.5 -130t53.5 -114q0 -45 -40 -87t-108 -42q-86 0 -137 72t-51 164z" />
<glyph unicode="&#x2019;" horiz-adv-x="606" d="M119 1006l35 34q104 104 104 187q0 59 -53 129.5t-53 113.5q0 45 39.5 87t107.5 42q86 0 137 -71.5t51 -163.5q0 -96 -47 -203.5t-139 -189.5l-78 -68z" />
<glyph unicode="&#x201a;" horiz-adv-x="606" d="M119 -309l35 35q104 104 104 186q0 59 -53 130t-53 114q0 45 39.5 87t107.5 42q86 0 137 -72t51 -164q0 -96 -47 -203.5t-139 -189.5l-78 -68z" />
<glyph unicode="&#x201c;" horiz-adv-x="985" d="M82 1139q0 96 47 203.5t139 189.5l78 67l105 -102l-35 -35q-104 -104 -105 -186q0 -59 53.5 -130t53.5 -114q0 -45 -40 -87t-108 -42q-86 0 -137 72t-51 164zM535 1139q0 96 47 203.5t139 189.5l78 67l104 -102l-35 -35q-104 -104 -104 -186q0 -59 53 -130t53 -114 q0 -45 -39.5 -87t-107.5 -42q-86 0 -137 72t-51 164z" />
<glyph unicode="&#x201d;" horiz-adv-x="985" d="M82 1006l35 34q104 104 104 187q0 59 -53 129.5t-53 113.5q0 45 40 87t107 42q86 0 137.5 -71.5t51.5 -163.5q0 -96 -47.5 -203.5t-139.5 -189.5l-78 -68zM535 1006l34 34q104 104 105 187q0 59 -53.5 129.5t-53.5 113.5q0 45 40 87t108 42q86 0 137 -71.5t51 -163.5 q0 -96 -47 -203.5t-139 -189.5l-78 -68z" />
<glyph unicode="&#x201e;" horiz-adv-x="985" d="M82 -309l35 35q104 104 104 186q0 59 -53 130t-53 114q0 45 40 87t107 42q86 0 137.5 -72t51.5 -164q0 -96 -47.5 -203.5t-139.5 -189.5l-78 -68zM535 -309l34 35q104 104 105 186q0 59 -53.5 130t-53.5 114q0 45 40 87t108 42q86 0 137 -72t51 -164q0 -96 -47 -203.5 t-139 -189.5l-78 -68z" />
<glyph unicode="&#x2022;" horiz-adv-x="1024" d="M154 716.5q0 149.5 104 254t254 104.5t254 -104.5t104 -254t-104 -254t-254 -104.5t-254 104.5t-104 254z" />
<glyph unicode="&#x2026;" horiz-adv-x="2048" d="M184 127q0 66 46 112t112 46t112 -46t46 -112t-46 -112t-112 -46t-112 46t-46 112zM866 127q0 66 46 112t112 46t112 -46t46 -112t-46 -112t-112 -46t-112 46t-46 112zM1548 127q0 66 46 112t112 46t112 -46t46 -112t-46 -112t-112 -46t-112 46t-46 112z" />
<glyph unicode="&#x202f;" horiz-adv-x="382" />
<glyph unicode="&#x2039;" horiz-adv-x="606" d="M86 518v131l274 312l160 -127l-217 -252l217 -256l-160 -123z" />
<glyph unicode="&#x203a;" horiz-adv-x="606" d="M86 330l217 252l-217 256l160 123l274 -316v-131l-274 -311z" />
<glyph unicode="&#x205f;" horiz-adv-x="479" />
<glyph unicode="&#x20ac;" horiz-adv-x="1212" d="M43 522h158q47 -260 192 -399q156 -147 414 -148q193 0 342 68l4 209q-164 -88 -332 -88q-309 0 -391 358h428l78 164h-528v37q0 45 2 63h553l77 164h-604q86 326 379 326q84 0 182 -33v-147h168v280q-201 82 -358 82q-229 0 -387 -141q-154 -135 -207 -367h-92l-78 -164 h143v-100h-65z" />
<glyph unicode="&#x2122;" horiz-adv-x="2027" d="M66 1290v144h679v-144h-249v-708h-181v708h-249zM909 582v852h248l229 -607l230 607h248v-852h-168v671h-4l-248 -671h-115l-248 671h-4v-671h-168z" />
<glyph unicode="&#xe000;" horiz-adv-x="1065" d="M0 1065h1065v-1065h-1065v1065z" />
<glyph unicode="&#xfb01;" horiz-adv-x="1290" d="M61 897v168h162l4 145q6 199 128 294t321 95q106 0 272 -34v-168q-100 23 -235 22q-250 0 -256 -233l-4 -121h624l-4 -897h144v-168h-512v168h139l4 729h-395l-4 -729h143v-168h-502v168h129l4 729h-162z" />
<glyph unicode="&#xfb02;" horiz-adv-x="1327" d="M61 897v168h162l4 145q6 199 128 294t321 95q115 0 207 -24h235l-8 -1407h143v-168h-501v168h129l8 1227q-68 25 -187 24q-125 0 -183 -64.5t-62 -168.5l-4 -121h249v-168h-249l-4 -729h143v-168h-502v168h129l4 729h-162z" />
<glyph unicode="&#xfb03;" horiz-adv-x="2086" d="M1503 897v168h392l-4 -897h143v-168h-512v168h139l4 729h-162zM1622 1441.5q0 65.5 46 111.5t111.5 46t112 -46t46.5 -111.5t-46.5 -111.5t-112 -46t-111.5 46t-46 111.5zM782 897v168h162l4 145q6 199 128 294t321 95q78 0 207 -24l-9 -180q-57 25 -172 24 q-125 0 -183 -64.5t-62 -168.5l-4 -121h249v-168h-249l-4 -729h163v-168h-522v168h129l4 729h-162zM61 897v168h162l4 145q6 199 128 294t321 95q78 0 207 -24l-9 -180q-57 25 -172 24q-125 0 -183 -64.5t-62 -168.5l-4 -121h249v-168h-249l-4 -729h163v-168h-522v168h129 l4 729h-162z" />
<glyph unicode="&#xfb04;" horiz-adv-x="2086" d="M1483 1407v168h416l-8 -1407h143v-168h-502v168h129l8 1239h-186zM782 897v168h162l4 145q6 199 128 294t321 95q78 0 207 -24l-9 -180q-57 25 -172 24q-125 0 -183 -64.5t-62 -168.5l-4 -121h249v-168h-249l-4 -729h163v-168h-522v168h129l4 729h-162zM61 897v168h162 l4 145q6 199 128 294t321 95q78 0 207 -24l-9 -180q-57 25 -172 24q-125 0 -183 -64.5t-62 -168.5l-4 -121h249v-168h-249l-4 -729h163v-168h-522v168h129l4 729h-162z" />
</font>
</defs>
</svg>
