<?xml version="1.0" encoding="utf-8"?>
<!-- Generator: Adobe Illustrator 18.0.0, SVG Export Plug-In . SVG Version: 6.00 Build 0)  -->
<!DOCTYPE svg PUBLIC "-//W3C//DTD SVG 1.1//EN" "http://www.w3.org/Graphics/SVG/1.1/DTD/svg11.dtd">
<svg version="1.1" id="UI_Design" xmlns="http://www.w3.org/2000/svg" xmlns:xlink="http://www.w3.org/1999/xlink" x="0px" y="0px"
	 viewBox="0 0 34 34" enable-background="new 0 0 34 34" xml:space="preserve">
<g>
	<g>
		<g>
			<g>
				<circle fill="#333333" cx="17" cy="17" r="17"/>
			</g>
		</g>
	</g>
	<g>
		<g id="Shape_1_copy_2_1_">
			<g>
				<path fill="#FFFFFF" d="M21.5,17.6l-1.3,0.7l-1.6-0.6l-1.4,0.8L16,17.7l-2.8,0.8l-1.3-0.6L11,18.3l0.3,5.3
					c0,0.5,0.4,0.8,0.9,0.8l10.1-0.6c0.5,0,0.8-0.4,0.8-0.9l-0.3-5.3L21.5,17.6z"/>
			</g>
		</g>
		<g id="Shape_1_copy_3_1_">
			<g>
				<path fill="#FFFFFF" d="M19.8,13l2.5,0c0.2,0,0.3-0.1,0.1-0.3l-2.8-2.8c-0.2-0.2-0.3-0.1-0.3,0.1l0,2.5
					C19.4,12.8,19.5,13,19.8,13z M22.3,13.8l-3.4,0c-0.2,0-0.4-0.2-0.4-0.4l0-3.4c0-0.2-0.2-0.4-0.4-0.4l-6.3,0
					c-0.5,0-0.8,0.4-0.8,0.8l0,6.5l1-0.4l1.2,0.7l2.9-0.6l1.1,0.8l1.5-0.7l1.5,0.7l1.3-0.6c0,0,1.2,0.1,1.2,0.1l0-1.4l0-0.8l0-0.4
					C22.7,14,22.5,13.8,22.3,13.8z"/>
			</g>
		</g>
	</g>
</g>
</svg>
