<?xml version="1.0" encoding="utf-8"?>
<!-- Generator: Adobe Illustrator 18.0.0, SVG Export Plug-In . SVG Version: 6.00 Build 0)  -->
<!DOCTYPE svg PUBLIC "-//W3C//DTD SVG 1.1//EN" "http://www.w3.org/Graphics/SVG/1.1/DTD/svg11.dtd">
<svg version="1.1" id="UI_Design" xmlns="http://www.w3.org/2000/svg" xmlns:xlink="http://www.w3.org/1999/xlink" x="0px" y="0px"
	 viewBox="0 0 300 300" enable-background="new 0 0 300 300" xml:space="preserve">
<g>
	<g>
		<g>
			<g>
				<circle fill="#FFFFFF" cx="150" cy="150" r="150"/>
			</g>
		</g>
	</g>
	<g>
		<g id="Shape_1_copy_2_1_">
			<g>
				<path fill="#333333" d="M189.7,155.3l-11.5,6.2l-14.1-5.3l-12.4,7.1l-10.6-7.1l-24.7,7.1l-11.5-5.3l-7.9,3.5l2.6,46.8
					c0,4.4,3.5,7.1,7.9,7.1l89.1-5.3c4.4,0,7.1-3.5,7.1-7.9l-2.6-46.8L189.7,155.3z"/>
			</g>
		</g>
		<g id="Shape_1_copy_3_1_">
			<g>
				<path fill="#333333" d="M174.7,114.7h22.1c1.8,0,2.6-0.9,0.9-2.6l-24.7-24.7c-1.8-1.8-2.6-0.9-2.6,0.9v22.1
					C171.2,112.9,172.1,114.7,174.7,114.7z M196.8,121.8h-30c-1.8,0-3.5-1.8-3.5-3.5v-30c0-1.8-1.8-3.5-3.5-3.5h-55.6
					c-4.4,0-7.1,3.5-7.1,7.1v57.4l8.8-3.5l10.6,6.2l25.6-5.3l9.7,7.1l13.2-6.2l13.2,6.2l11.5-5.3l10.6,0.9v-12.4v-7.1v-3.5
					C200.3,123.5,198.5,121.8,196.8,121.8z"/>
			</g>
		</g>
	</g>
</g>
</svg>
