<?xml version="1.0" encoding="utf-8"?>
<!-- Generator: Adobe Illustrator 18.0.0, SVG Export Plug-In . SVG Version: 6.00 Build 0)  -->
<!DOCTYPE svg PUBLIC "-//W3C//DTD SVG 1.1//EN" "http://www.w3.org/Graphics/SVG/1.1/DTD/svg11.dtd">
<svg version="1.1" id="UI_Design" xmlns="http://www.w3.org/2000/svg" xmlns:xlink="http://www.w3.org/1999/xlink" x="0px" y="0px"
	 viewBox="0 0 34 34" enable-background="new 0 0 34 34" xml:space="preserve">
<g>
	<g>
		<path fill="#FFFFFF" d="M4,33.5c-1.9,0-3.5-1.6-3.5-3.5V4c0-1.9,1.6-3.5,3.5-3.5h26c1.9,0,3.5,1.6,3.5,3.5v26
			c0,1.9-1.6,3.5-3.5,3.5H4z"/>
		<path fill="#787878" d="M30,1c1.7,0,3,1.3,3,3v26c0,1.7-1.3,3-3,3H4c-1.7,0-3-1.3-3-3V4c0-1.7,1.3-3,3-3H30 M30,0H4
			C1.8,0,0,1.8,0,4v26c0,2.2,1.8,4,4,4h26c2.2,0,4-1.8,4-4V4C34,1.8,32.2,0,30,0L30,0z"/>
	</g>
</g>
</svg>
