<?xml version="1.0" encoding="utf-8"?>
<!-- Generator: Adobe Illustrator 18.0.0, SVG Export Plug-In . SVG Version: 6.00 Build 0)  -->
<!DOCTYPE svg PUBLIC "-//W3C//DTD SVG 1.1//EN" "http://www.w3.org/Graphics/SVG/1.1/DTD/svg11.dtd">
<svg version="1.1" id="UI_Design" xmlns="http://www.w3.org/2000/svg" xmlns:xlink="http://www.w3.org/1999/xlink" x="0px" y="0px"
	 viewBox="0 0 300 300" enable-background="new 0 0 300 300" xml:space="preserve">
<g>
	<g>
		<g>
			<g>
				<circle fill="#FFFFFF" cx="150" cy="150" r="150"/>
			</g>
		</g>
	</g>
	<g>
		<path fill="#333333" d="M150,72.4c-22.1,0-40.6,17.6-40.6,40.6v19.4h80.3v-19.4C190.6,90,172.1,72.4,150,72.4z M175.6,129.7h-52.1
			v-17.6c0-14.1,11.5-25.6,25.6-25.6s25.6,11.5,25.6,25.6v17.6H175.6z"/>
		<path fill="#333333" d="M195.9,124.4h-91.8c-3.5,0-6.2,2.6-6.2,6.2v77.6c0,3.5,2.6,6.2,6.2,6.2h92.6c3.5,0,6.2-2.6,6.2-6.2v-77.6
			C202.9,127.1,199.4,124.4,195.9,124.4z M155.3,175.6v18.5h-10.6v-17.6c-6.2-1.8-9.7-7.9-9.7-14.1c0-8.8,7.1-15,15-15
			c8.8,0,15,7.1,15,15C165,167.6,161.5,172.9,155.3,175.6z"/>
	</g>
</g>
</svg>
