<?xml version="1.0" encoding="utf-8"?>
<!-- Generator: Adobe Illustrator 18.0.0, SVG Export Plug-In . SVG Version: 6.00 Build 0)  -->
<!DOCTYPE svg PUBLIC "-//W3C//DTD SVG 1.1//EN" "http://www.w3.org/Graphics/SVG/1.1/DTD/svg11.dtd">
<svg version="1.1" id="UI_Design" xmlns="http://www.w3.org/2000/svg" xmlns:xlink="http://www.w3.org/1999/xlink" x="0px" y="0px"
	 viewBox="0 0 34 34" enable-background="new 0 0 34 34" xml:space="preserve">
<g>
	<g>
		<g>
			<g>
				<circle fill="#333333" cx="17" cy="17" r="17"/>
			</g>
		</g>
	</g>
	<g>
		<path fill="#FFFFFF" d="M17,8.2c-2.5,0-4.6,2-4.6,4.6v2.2h9.1v-2.2C21.6,10.2,19.5,8.2,17,8.2z M19.9,14.7h-5.9v-2
			c0-1.6,1.3-2.9,2.9-2.9s2.9,1.3,2.9,2.9V14.7z"/>
		<path fill="#FFFFFF" d="M22.2,14.1H11.8c-0.4,0-0.7,0.3-0.7,0.7v8.8c0,0.4,0.3,0.7,0.7,0.7h10.5c0.4,0,0.7-0.3,0.7-0.7v-8.8
			C23,14.4,22.6,14.1,22.2,14.1z M17.6,19.9v2.1h-1.2v-2c-0.7-0.2-1.1-0.9-1.1-1.6c0-1,0.8-1.7,1.7-1.7c1,0,1.7,0.8,1.7,1.7
			C18.7,19,18.3,19.6,17.6,19.9z"/>
	</g>
</g>
</svg>
